<?xml version="1.0" encoding="utf-8"?>
<!-- Generator: Adobe Illustrator 19.2.0, SVG Export Plug-In . SVG Version: 6.00 Build 0)  -->
<svg version="1.1" xmlns="http://www.w3.org/2000/svg" xmlns:xlink="http://www.w3.org/1999/xlink" x="0px" y="0px"
	 viewBox="0 0 216 216" style="enable-background:new 0 0 216 216;" xml:space="preserve">
<style type="text/css">
	.st0{display:none;}
	.st1{display:inline;}
	.st2{fill:#FFFFFF;}
</style>
<g id="Layer_1" class="st0">
	<g class="st1">
		<path class="st2" d="M103.5,107.5L55.1,66.8v82.8c0,3.3,2.7,6,6,6h87.8c3.3,0,6-2.7,6-6V66.8l-48.4,40.7H103.5z"/>
		<path class="st2" d="M153.6,61.9l1.2-1c-0.5-2.8-2.9-5-5.9-5H61.1c-3,0-5.4,2.2-5.9,5l1.2,1H153.6z"/>
		<path d="M148.9,51.2H61.1c-5.9,0-10.6,4.8-10.6,10.6v87.8c0,5.9,4.8,10.6,10.6,10.6h87.8c5.9,0,10.6-4.8,10.6-10.6V61.9
			C159.5,56,154.8,51.2,148.9,51.2z M154.9,66.8v82.8c0,3.3-2.7,6-6,6H61.1c-3.3,0-6-2.7-6-6V66.8l-3.8-3.2l1.5-1.8l0,0h0l1.5-1.8
			l0.9,0.8c0.5-2.8,2.9-5,5.9-5h87.8c3,0,5.4,2.2,5.9,5l0.9-0.8l3,3.5L154.9,66.8z"/>
		<polygon class="st2" points="105,102.7 153.6,61.9 56.4,61.9 		"/>
		<polygon class="st2" points="52.8,61.9 52.8,61.9 52.8,61.9 		"/>
		<polygon points="155.7,60.1 154.8,60.9 153.6,61.9 105,102.7 56.4,61.9 55.2,60.9 54.3,60.1 52.8,61.9 52.8,61.9 51.3,63.6 
			55.1,66.8 103.5,107.5 106.5,107.5 154.9,66.8 158.7,63.6 		"/>
	</g>
</g>
<g id="Layer_1_copy" class="st0">
	<g class="st1">
		<path class="st2" d="M151.9,55.8H64.1c-3.3,0-6,2.7-6,6v87.8c0,3.3,2.7,6,6,6h87.8c3.3,0,6-2.7,6-6V61.9
			C157.9,58.5,155.2,55.8,151.9,55.8z M109.9,140.1c-17.1,0-31.1-13.9-31.1-31.1S92.7,78,109.9,78c17.1,0,31.1,13.9,31.1,31.1
			S127,140.1,109.9,140.1z M140.9,84.4c-6.3,0-11.4-5.1-11.4-11.4c0-6.3,5.1-11.4,11.4-11.4c6.3,0,11.4,5.1,11.4,11.4
			C152.3,79.3,147.2,84.4,140.9,84.4z"/>
		<path d="M151.9,51.2H64.1c-5.9,0-10.6,4.8-10.6,10.6v87.8c0,5.9,4.8,10.6,10.6,10.6h87.8c5.9,0,10.6-4.8,10.6-10.6V61.9
			C162.5,56,157.8,51.2,151.9,51.2z M157.9,149.6c0,3.3-2.7,6-6,6H64.1c-3.3,0-6-2.7-6-6V61.9c0-3.3,2.7-6,6-6h87.8c3.3,0,6,2.7,6,6
			V149.6z"/>
		<path class="st2" d="M136.3,109c0-14.6-11.9-26.5-26.5-26.5S83.4,94.5,83.4,109s11.9,26.5,26.5,26.5S136.3,123.6,136.3,109z"/>
		<path d="M109.9,78C92.7,78,78.8,91.9,78.8,109s13.9,31.1,31.1,31.1c17.1,0,31.1-13.9,31.1-31.1S127,78,109.9,78z M83.4,109
			c0-14.6,11.9-26.5,26.5-26.5s26.5,11.9,26.5,26.5s-11.9,26.5-26.5,26.5S83.4,123.6,83.4,109z"/>
		<circle class="st2" cx="140.9" cy="73" r="6.8"/>
		<path d="M140.9,61.6c-6.3,0-11.4,5.1-11.4,11.4c0,6.3,5.1,11.4,11.4,11.4c6.3,0,11.4-5.1,11.4-11.4
			C152.3,66.7,147.2,61.6,140.9,61.6z M134.1,73c0-3.8,3.1-6.8,6.8-6.8c3.8,0,6.8,3.1,6.8,6.8c0,3.8-3.1,6.8-6.8,6.8
			C137.1,79.8,134.1,76.8,134.1,73z"/>
	</g>
</g>
<g id="Layer_1_copy_2">
	<g>
		<path class="st2" d="M157.9,59.1H70.1c-3.3,0-6,2.7-6,6v87.8c0,3.3,2.7,6,6,6h43.4v-44.4h-11.7v-12h11.7v-8
			c0-15.7,3.5-25.9,21.1-25.9c3.1,0,6,0.2,9,0.8l-0.9,12c-2-0.5-3.9-0.8-5.9-0.8c-7.9,0-9.1,5.4-9.1,11.7v10.3h13.1v12h-13.1v44.4
			h30.2c3.3,0,6-2.7,6-6V65.2C163.9,61.8,161.2,59.1,157.9,59.1z"/>
		<path d="M157.9,54.5H70.1c-5.9,0-10.6,4.8-10.6,10.6v87.8c0,5.9,4.8,10.6,10.6,10.6h87.8c5.9,0,10.6-4.8,10.6-10.6V65.2
			C168.5,59.3,163.7,54.5,157.9,54.5z M163.9,152.9c0,3.3-2.7,6-6,6h-30.2v0.1h-14.1v-0.1H70.1c-3.3,0-6-2.7-6-6V65.2
			c0-3.3,2.7-6,6-6h87.8c3.3,0,6,2.7,6,6V152.9z"/>
		<path d="M140.7,114.5v-12h-13.1V92.3c0-6.2,1.2-11.7,9.1-11.7c2,0,3.9,0.4,5.9,0.8l0.9-12c-2.9-0.6-5.9-0.8-9-0.8
			c-17.6,0-21.1,10.3-21.1,25.9v8h-11.7v12h11.7v44.4v0.1h14.1v-0.1v-44.4H140.7z"/>
	</g>
</g>
</svg>
