<?xml version="1.0" encoding="utf-8"?>
<!-- Generator: Adobe Illustrator 19.2.0, SVG Export Plug-In . SVG Version: 6.00 Build 0)  -->
<svg version="1.1" xmlns="http://www.w3.org/2000/svg" xmlns:xlink="http://www.w3.org/1999/xlink" x="0px" y="0px"
	 viewBox="0 0 265.3 48" style="enable-background:new 0 0 265.3 48;" xml:space="preserve">
<style type="text/css">
	.st0{display:none;}
	.st1{display:inline;fill:none;}
	.st2{display:inline;}
	.st3{font-family:'FuturaStd-ExtraBold';}
	.st4{font-size:60px;}
	.st5{font-family:'FuturaStd-Heavy';}
	.st6{font-size:24px;}
	.st7{font-family:'FuturaStd-Light';}
	.st8{font-size:18px;}
	.st9{font-size:35px;}
	.st10{font-family:'ProximaNova-Semibold';}
	.st11{fill:#FFFFFF;}
	.st12{display:inline;fill:#FFFFFF;}
	.st13{display:inline;fill:#A7A9AC;}
	.st14{fill:#58595B;}
	.st15{font-family:'Archer-Bold';}
	.st16{font-size:26px;}
	.st17{font-family:'ARDESTINE';}
	.st18{display:inline;fill:none;stroke:#FFFFFF;stroke-width:3;stroke-miterlimit:10;}
	.st19{stroke:#000000;stroke-miterlimit:10;}
	.st20{fill:#FFFFFF;stroke:#FFFFFF;stroke-miterlimit:10;}
	.st21{display:inline;fill:#FFFFFF;stroke:#FFFFFF;stroke-miterlimit:10;}
	.st22{display:inline;stroke:#000000;stroke-miterlimit:10;}
	.st23{fill:#FFFFFF;stroke:#FFFFFF;stroke-width:3;stroke-miterlimit:10;}
	.st24{font-family:'CenturyGothic-Bold';}
	.st25{display:inline;fill:#006E44;}
	.st26{display:inline;fill:#18AE6F;}
	.st27{fill:#088C58;}
	.st28{fill:#18AE6F;}
	.st29{stroke:#18AE6F;stroke-width:4;stroke-miterlimit:10;}
	.st30{fill:#F1F2F2;}
	.st31{font-size:21px;}
</style>
<g id="Layer_1" class="st0">
	<rect x="28.5" y="-28.6" class="st1" width="42.8" height="52.6"/>
	<text transform="matrix(1 0 0 1 28.5359 20.0758)" class="st2 st3 st4">F</text>
	<rect x="-290.3" y="-152.3" class="st1" width="146.8" height="27.7"/>
	<text transform="matrix(1 0 0 1 -290.2662 -132.526)" class="st2 st6" style="font-family:'FuturaStd-Book';">Ashley Farias</text>
	<rect x="-290.3" y="-119.4" class="st1" width="146.8" height="27.7"/>
	<text transform="matrix(1 0 0 1 -290.2662 -99.6255)" class="st2 st6" style="font-family:'FuturaStd-BookOblique';">Ashley Farias</text>
	<rect x="-293.3" y="-86.5" class="st1" width="190" height="25.1"/>
	<text transform="matrix(1 0 0 1 -293.2965 -66.6055)" class="st2 st6" style="font-family:'FuturaStd-Bold';">Ashley Farias</text>
	<rect x="-293.3" y="-52.8" class="st1" width="190" height="25.1"/>
	<text transform="matrix(1 0 0 1 -293.2965 -34.6101)" class="st2 st6" style="font-family:'GloriolaStd-Light';">Ashley Farias</text>
	<rect x="-293.3" y="-23.3" class="st1" width="190" height="25.1"/>
	<text transform="matrix(1 0 0 1 -293.2965 -5.4894)" class="st2 st6" style="font-family:'Hermes-Regular';">Ashley Farias</text>
	<rect x="-293.3" y="8.7" class="st1" width="190" height="25.1"/>
	<text transform="matrix(1 0 0 1 -293.2965 25.9451)" class="st2 st6" style="font-family:'MundoSans';">Ashley Farias</text>
	<rect x="-293.3" y="38.2" class="st1" width="190" height="25.1"/>
	<text transform="matrix(1 0 0 1 -293.2965 55.022)" class="st2 st6" style="font-family:'MuseoSlab-300';">Ashley Farias</text>
	<rect x="-293.3" y="65.4" class="st1" width="190" height="25.1"/>
	<text transform="matrix(1 0 0 1 -293.2965 81.431)" class="st2 st6" style="font-family:'ProximaNova-Regular';">Ashley Farias</text>
	<rect x="-293.3" y="116.1" class="st1" width="190" height="25.1"/>
	<text transform="matrix(1 0 0 1 -293.2965 135.8318)" class="st2" style="font-family:'Averoster'; font-size:40px;">Ashley Farias</text>
	<rect x="-353.7" y="94" class="st1" width="223.4" height="18.6"/>
	<text transform="matrix(1 0 0 1 -353.7294 111.9951)" class="st2 st6" style="font-family:'BigJohn';">Ashley Farias</text>
	<rect x="-83.3" y="-152.3" class="st1" width="232.5" height="37.7"/>
	<text transform="matrix(1 0 0 1 -83.3159 -125.6459)" class="st2"><tspan x="0" y="0" style="font-family:'ProximaNova-Thin'; font-size:40px;">Fit</tspan><tspan x="52" y="0" style="font-family:'ProximaNova-Black'; font-size:40px;">Farias</tspan></text>
	<rect x="138.5" y="-148.2" class="st1" width="232.5" height="37.7"/>
	<text transform="matrix(1 0 0 1 138.4638 -121.5334)" class="st2"><tspan x="0" y="0" style="font-family:'ProximaNova-Light'; font-size:40px;">Fit</tspan><tspan x="53.2" y="0" style="font-family:'ProximaNova-Black'; font-size:40px;">Farias</tspan></text>
	<rect x="-82" y="-115.9" class="st1" width="232.5" height="37.7"/>
	<text transform="matrix(1 0 0 1 -82.0172 -82.9404)" class="st2"><tspan x="0" y="0" class="st3" style="font-size:40px;">Fit</tspan><tspan x="64" y="0" class="st7" style="font-size:40px;">Farias</tspan></text>
	<rect x="-85" y="-24.7" class="st1" width="109.3" height="52.6"/>
	<text transform="matrix(1 0 0 1 -85.0037 23.9542)" class="st2 st3 st4">F</text>
	<rect x="-84.6" y="-69.7" class="st1" width="232.5" height="37.7"/>
	<text transform="matrix(1 0 0 1 -84.6146 -36.6633)" class="st2"><tspan x="0" y="0" class="st3" style="font-size:40px;">Fit</tspan><tspan x="64" y="0" style="font-family:'ProximaNova-Light'; font-size:45px;">F</tspan><tspan x="88.4" y="0" class="st7" style="font-size:40px;">arias</tspan></text>
	<rect x="-48.8" y="-23.7" class="st1" width="80.1" height="57.6"/>
	<text transform="matrix(1 0 0 1 -48.8258 -3.3528)" class="st2"><tspan x="0" y="0" class="st5 st6">it</tspan><tspan x="0" y="27" class="st7 st6">farias</tspan></text>
	<rect x="50.8" y="4.2" class="st1" width="29.8" height="22.8"/>
	<text transform="matrix(1 0 0 1 50.7933 19.4286)" class="st2 st5 st8">it</text>
	<rect x="62.5" y="-8.9" class="st1" width="116.8" height="36.9"/>
	<text transform="matrix(1 0 0 1.1 62.4632 19.9491)" class="st2 st7 st9">farias</text>
	<rect x="-82" y="38.2" class="st1" width="299.5" height="27.3"/>
	<text transform="matrix(1 0 0 1 -82.0173 61.4952)" class="st2 st10 st9">Farias Fitness</text>
	<rect x="-90.5" y="106.4" class="st1" width="30.3" height="27.3"/>
	<text transform="matrix(1 0 0 1 -90.5363 129.7452)" class="st2 st10 st9">F</text>
	<rect x="-84" y="71.8" class="st1" width="299.5" height="31.5"/>
	<text transform="matrix(1 0 0 1 -84.0363 96.2527)" class="st2 st9" style="font-family:'MuseoSans-100';">Farias Fitness</text>
	<g class="st2">
		<rect x="115.8" y="-109" style="fill:none;" width="87" height="63.3"/>
		<text transform="matrix(1 0 0 1 115.75 -49.2412)" style="font-family:'FuturaStd-Bold'; font-size:72px;">A</text>
		<polygon style="fill:none;" points="130.6,-67.8 188,-67.8 182,-33.7 124.6,-33.7 		"/>
		
			<text transform="matrix(0.9848 0 -0.1736 0.9848 128.317 -54.6839)" class="st11" style="font-family:'ProximaNova-LightIt'; font-size:20px;">F</text>
		<polygon style="fill:none;" points="224.4,-62.8 142.5,-62.8 143.4,-67.8 225.3,-67.8 		"/>
		
			<text transform="matrix(0.9848 0 -0.1736 0.9848 142.7974 -64.4855)" class="st11" style="font-family:'ProximaNova-LightIt'; font-size:5.0771px;">arias</text>
		<polygon style="fill:none;" points="222.3,-58.3 140.5,-58.3 141.4,-63.3 223.2,-63.3 		"/>
		
			<text transform="matrix(0.9848 0 -0.1736 0.9848 140.7539 -59.9856)" class="st11" style="font-family:'ProximaNova-LightIt'; font-size:5.0771px;">itness</text>
	</g>
	<g class="st2">
		<g>
			<path d="M225.7-25.7L219-8.8h-26.8l37.4-97.1h27.6l36.6,97.1h-26.9l-6.3-16.9H225.7z M243.4-75.9h-0.3L232.7-45h21L243.4-75.9z"
				/>
		</g>
		<g>
			<path class="st11" d="M216.3-18.6l9.3-23.5h14.9l-0.7,1.8h-12.9l-3.4,8.7h12.6l-0.7,1.8h-12.6l-4.4,11.1H216.3z"/>
		</g>
		<g>
			<path class="st11" d="M245.7-36.1l0-1.5h-3.2l-1.2,1.5h-0.6l4.8-6h0.6l0.1,6H245.7z M245.7-41.5l-2.8,3.5h2.8L245.7-41.5z"/>
			<path class="st11" d="M250.7-36.1l-0.7-2.5h-1.4l-1,2.5h-0.5l2.4-6h2.1c0.8,0,1.5,0.5,1.4,1.5c-0.2,1.1-1.1,1.9-2.4,2l0.7,2.5
				H250.7z M250.5-39c1,0,1.7-0.7,1.9-1.5c0.1-0.6-0.4-1.1-0.9-1.1h-1.6l-1,2.6H250.5L250.5-39z"/>
			<path class="st11" d="M252.5-36.1l2.4-6h0.5l-2.4,6H252.5z"/>
			<path class="st11" d="M258.8-36.1l0-1.5h-3.2l-1.2,1.5h-0.6l4.8-6h0.6l0.1,6H258.8z M258.8-41.5L256-38h2.8L258.8-41.5z"/>
			<path class="st11" d="M260.2-37l0.4-0.4c0.3,0.6,0.9,1,1.8,1c1.1,0,1.6-0.7,1.7-1.3c0.2-1.3-2.8-1.1-2.5-2.7
				c0.2-0.9,1.2-1.7,2.3-1.7c0.9,0,1.6,0.4,1.9,0.9l-0.5,0.4c-0.3-0.6-0.9-0.8-1.6-0.8c-0.8,0-1.5,0.6-1.6,1.1
				c-0.2,1.2,2.8,1,2.5,2.7c-0.2,0.9-1,1.8-2.4,1.8C261.3-36,260.5-36.4,260.2-37z"/>
		</g>
		<g>
			<path class="st11" d="M237.7-28l2.4-6h0.5l-2.4,6H237.7z"/>
			<path class="st11" d="M241.3-28l2.2-5.5h-2l0.2-0.5h4.4l-0.2,0.5h-2l-2.2,5.5H241.3z"/>
			<path class="st11" d="M249.1-28l-1.7-5.2l-2.1,5.2h-0.5l2.4-6h0.5l1.7,5.1l2-5.1h0.5l-2.4,6H249.1z"/>
			<path class="st11" d="M251-28l2.4-6h3.8l-0.2,0.5h-3.3l-0.9,2.2h3.2l-0.2,0.5h-3.2l-0.9,2.4h3.3l-0.2,0.5H251z"/>
			<path class="st11" d="M256.2-29l0.4-0.4c0.3,0.6,0.9,1,1.8,1c1.1,0,1.6-0.7,1.7-1.3c0.2-1.3-2.8-1.1-2.5-2.7
				c0.2-0.9,1.2-1.7,2.3-1.7c0.9,0,1.6,0.4,1.9,0.9l-0.4,0.4c-0.3-0.6-0.9-0.8-1.6-0.8c-0.8,0-1.5,0.6-1.6,1.1
				c-0.2,1.2,2.8,1,2.5,2.7c-0.2,0.9-1,1.8-2.4,1.8C257.3-27.9,256.5-28.4,256.2-29z"/>
			<path class="st11" d="M261.4-29l0.4-0.4c0.3,0.6,0.9,1,1.8,1c1.1,0,1.6-0.7,1.7-1.3c0.2-1.3-2.8-1.1-2.5-2.7
				c0.2-0.9,1.2-1.7,2.3-1.7c0.9,0,1.6,0.4,1.9,0.9l-0.4,0.4c-0.3-0.6-0.9-0.8-1.6-0.8c-0.8,0-1.5,0.6-1.6,1.1
				c-0.2,1.2,2.8,1,2.5,2.7c-0.2,0.9-1,1.8-2.4,1.8C262.5-27.9,261.7-28.4,261.4-29z"/>
		</g>
	</g>
	<polygon class="st1" points="36,193.3 -95.8,193.3 -78.9,151.6 52.9,151.6 	"/>
	
		<text transform="matrix(0.9272 0 -0.3746 0.9272 -91.8219 183.5704)" class="st2" style="font-family:'ProximaNova-Thin'; font-size:51.7697px;">A</text>
	<rect x="-64.3" y="151.6" class="st1" width="71.8" height="33.5"/>
	<text transform="matrix(1 0 0 1 -64.3035 183.5702)" class="st2" style="font-family:'ProximaNova-Thin'; font-size:48px;">F</text>
	
		<rect x="-89.5" y="128.1" transform="matrix(0.7712 -0.6366 0.6366 0.7712 -102.4106 -24.5077)" class="st12" width="8.3" height="4.3"/>
	
		<rect x="-77.8" y="108.3" transform="matrix(0.7712 -0.6366 0.6366 0.7712 -87.1675 -21.5848)" class="st12" width="8.3" height="4.3"/>
	
		<rect x="-77.7" y="116.9" transform="matrix(0.7712 -0.6366 0.6366 0.7712 -92.6114 -19.5831)" class="st12" width="8.3" height="4.3"/>
	<polygon class="st2" points="-24.4,144.2 -24.4,131 -11.9,131 -3.2,123.8 -24.4,123.8 -24.4,111.9 -9.5,111.9 -0.8,104.8 
		-32.5,104.8 -32.5,150.9 	"/>
	<polygon class="st2" points="-3.5,144.2 -3.5,131 9,131 17.6,123.8 -3.5,123.8 -3.5,111.9 11.4,111.9 20,104.8 -11.7,104.8 
		-11.7,150.9 	"/>
	<polygon class="st13" points="239.9,96.7 239.9,71.8 265.2,71.8 278.5,61.1 239.9,61.1 239.9,40.3 265.9,40.3 281,27.9 225.8,27.9 
		225.8,108.3 	"/>
	<polyline class="st2" points="282.5,40.3 307.5,40.3 322.6,27.9 282.5,27.9 	"/>
	<g class="st2">
		<polygon class="st14" points="272,37.3 268.2,40.8 268.2,59.7 281.1,59.7 281.1,29.7 		"/>
		<polygon class="st14" points="268.2,71.9 268.2,96.6 281.1,107.7 281.1,60.5 		"/>
		<path class="st11" d="M283.9,28.9"/>
	</g>
	<rect x="9.5" y="127.2" class="st1" width="61" height="39.3"/>
	<text transform="matrix(1 0 0 1 9.4637 154.1807)" class="st2" style="font-family:'BigJohn'; font-size:36px;">AF</text>
	<rect x="225.3" y="112.8" class="st1" width="93" height="14.2"/>
	<text transform="matrix(1 0 0 1 225.3185 122.1774)" class="st2"><tspan x="0" y="0" style="font-family:'ProximaNova-Bold'; font-size:14px;">Fit</tspan><tspan x="20" y="0" style="font-family:'ProximaNova-Light'; font-size:14px;">Farias</tspan></text>
</g>
<g id="Layer_2" class="st0">
	<text transform="matrix(1 0 0 1 -79.5283 -141.6756)" class="st2 st6" style="font-family:'ROSKA';">Fit Farias</text>
	<text transform="matrix(1 0 0 1 -83.4584 -111.5446)" class="st2 st6" style="font-family:'RotisSansSerifStd';">FIT FARIAS</text>
	<text transform="matrix(1 0 0 1 -83.4584 -79.6669)" class="st2 st6" style="font-family:'Vani';">FIT FARIAS</text>
	<text transform="matrix(1 0 0 1 -83.8951 -53.0293)" class="st2 st16" style="font-family:'Rockwell-Bold';">FIT FARIAS</text>
	<text transform="matrix(1 0 0 1 -84.3318 -30.3219)" class="st2 st6" style="font-family:'Memphis-Light';">FIT FARIAS</text>
	<text transform="matrix(1 0 0 1 -83.8951 -8.0512)" class="st2 st6" style="font-family:'Elephant-Regular';">FIT FARIAS</text>
	<text transform="matrix(1 0 0 1 -84.7685 14.6563)" class="st2 st15 st16">FIT FARIAS</text>
	<text transform="matrix(1 0 0 1 -86.5152 37.8004)" class="st2 st6" style="font-family:'Averoster';">FIT FARIAS</text>
	<text transform="matrix(1 0 0 1 -86.5152 60.5078)" class="st2 st17 st6">FIT FARIAS</text>
	<rect x="-82.1" y="82.8" class="st1" width="194.3" height="62.9"/>
	<text transform="matrix(1 0 0 1 -82.1484 100.1055)" class="st2 st6" style="font-family:'UniversLTStd-Black';">FIT FARIAS</text>
	<line class="st18" x1="73.8" y1="95.1" x2="-83.9" y2="95.1"/>
</g>
<g id="_x31_" class="st0">
	<polyline class="st13" points="30.8,73.8 58.4,51 58.4,2.6 107.8,2.6 133.8,-18.3 58.4,-18.3 58.4,-58.9 109.1,-58.9 138.6,-83.3 
		30.8,-83.3 	"/>
	<polyline class="st2" points="141.6,-58.9 190.4,-58.9 219.9,-83.3 141.6,-83.3 	"/>
	<g class="st2">
		<polygon class="st14" points="121.1,-64.9 113.7,-58.1 113.7,-21.1 138.9,-21.1 138.9,-79.8 		"/>
		<polygon class="st14" points="113.7,2.8 113.7,50.9 138.9,72.7 138.9,-19.6 		"/>
		<path class="st11" d="M144.3-81.2"/>
	</g>
	<rect x="29.9" y="82.6" class="st1" width="181.6" height="46.9"/>
	<text transform="matrix(1 0 0 1 29.8784 107.3623)" class="st2"><tspan x="0" y="0" style="font-family:'ProximaNova-Bold'; font-size:37.057px;">Fit</tspan><tspan x="52.9" y="0" style="font-family:'ProximaNova-Light'; font-size:37.057px;">FARIAS</tspan></text>
</g>
<g id="_x32_" class="st0">
	<g class="st2">
		<g>
			<path d="M90.4,50.3L77.9,81.7h-50L97.6-99.4H149l68.2,181.1H167l-11.8-31.5H90.4z M123.3-43.4h-0.5l-19.5,57.6h39.2L123.3-43.4z"
				/>
		</g>
		<g>
			<path class="st11" d="M72.8,63.5l17.4-43.8H118l-1.3,3.4H92.6l-6.4,16.2h23.5l-1.4,3.4H84.8l-8.3,20.8H72.8z"/>
		</g>
		<g>
			<path class="st11" d="M127.8,30.8l0-2.7h-5.9l-2.2,2.7h-1.2l9-11.1h1.2l0.1,11.1H127.8z M127.7,20.7l-5.2,6.5h5.3L127.7,20.7z"/>
			<path class="st11" d="M137,30.8l-1.3-4.6h-2.5l-1.8,4.6h-1l4.4-11.1h3.8c1.5,0,2.8,1,2.5,2.8c-0.4,2.1-2.1,3.6-4.5,3.7l1.4,4.7
				H137z M136.7,25.3c2,0,3.2-1.3,3.5-2.8c0.2-1.2-0.7-2-1.7-2h-3l-1.9,4.8H136.7L136.7,25.3z"/>
			<path class="st11" d="M140.4,30.8l4.4-11.1h1l-4.4,11.1H140.4z"/>
			<path class="st11" d="M152.2,30.8l0-2.7h-5.9l-2.2,2.7h-1.2l9-11.1h1.2l0.1,11.1H152.2z M152.1,20.7l-5.2,6.5h5.3L152.1,20.7z"/>
			<path class="st11" d="M154.8,29l0.8-0.7c0.6,1.1,1.7,1.8,3.3,1.8c2,0,3-1.3,3.2-2.4c0.4-2.5-5.2-2-4.7-5.1
				c0.3-1.7,2.2-3.1,4.3-3.1c1.7,0,3,0.7,3.5,1.7l-0.8,0.7c-0.5-1.1-1.7-1.5-2.9-1.5c-1.5,0-2.8,1-3,2.1c-0.4,2.2,5.2,1.9,4.7,5.1
				c-0.3,1.7-2,3.4-4.5,3.4C156.8,31,155.3,30.2,154.8,29z"/>
		</g>
		<g>
			<path class="st11" d="M112.8,45.8l4.4-11.1h1l-4.4,11.1H112.8z"/>
			<path class="st11" d="M119.4,45.8l4.1-10.3h-3.6l0.3-0.9h8.2l-0.3,0.9h-3.6l-4.1,10.3H119.4z"/>
			<path class="st11" d="M133.9,45.8l-3.2-9.6l-3.8,9.6h-1l4.4-11.1h1l3.2,9.5l3.8-9.5h1l-4.4,11.1H133.9z"/>
			<path class="st11" d="M137.6,45.8l4.4-11.1h7.1l-0.3,0.9h-6.1l-1.6,4.1h6l-0.4,0.9h-6l-1.8,4.4h6.1l-0.3,0.9H137.6z"/>
			<path class="st11" d="M147.3,44.1l0.8-0.7c0.6,1.1,1.7,1.8,3.3,1.8c2,0,3-1.3,3.2-2.4c0.4-2.4-5.2-2-4.7-5.1
				c0.3-1.7,2.2-3.1,4.3-3.1c1.7,0,3,0.7,3.5,1.7l-0.8,0.7c-0.5-1.1-1.7-1.5-2.9-1.5c-1.5,0-2.8,1-3,2.1c-0.4,2.2,5.2,1.9,4.7,5.1
				c-0.3,1.7-2,3.4-4.5,3.4C149.3,46,147.7,45.2,147.3,44.1z"/>
			<path class="st11" d="M156.9,44.1l0.8-0.7c0.6,1.1,1.7,1.8,3.3,1.8c2,0,3-1.3,3.2-2.4c0.4-2.4-5.2-2-4.7-5.1
				c0.3-1.7,2.2-3.1,4.3-3.1c1.7,0,3,0.7,3.5,1.7l-0.8,0.7c-0.5-1.1-1.7-1.5-2.9-1.5c-1.5,0-2.8,1-3,2.1c-0.4,2.2,5.2,1.9,4.7,5.1
				c-0.3,1.7-2,3.4-4.5,3.4C159,46,157.4,45.2,156.9,44.1z"/>
		</g>
	</g>
</g>
<g id="_x33_" class="st0">
	<g class="st2">
		<polygon class="st19" points="9.9,-48 9.9,-131 -73,-48 		"/>
		<polygon class="st20" points="-4.2,-62.5 -4.2,-96.1 -37.8,-62.5 		"/>
		<polygon class="st19" points="17.2,-48.2 100.2,-131.2 17.2,-131.2 		"/>
	</g>
	<rect x="37.2" y="-115.8" class="st21" width="49" height="9"/>
	<rect x="37.2" y="-92.5" class="st21" width="49" height="28.2"/>
</g>
<g id="_x34_" class="st0">
	<g class="st2">
		<polygon class="st19" points="67.4,73.1 67.4,-71 -76.7,73.1 		"/>
		<polygon class="st20" points="37.7,43.1 37.7,2.7 -2.6,43.1 		"/>
		<polygon class="st19" points="80.1,72.7 224.2,-71.4 80.1,-71.4 		"/>
	</g>
	<rect x="114.7" y="-32.4" class="st21" width="85.1" height="15.7"/>
</g>
<g id="_x35_" class="st0">
	<rect x="184.3" y="78.2" class="st1" width="134.3" height="46.4"/>
	<text transform="matrix(1 0 0 1 184.2676 111.0957)" class="st2" style="font-family:'AvenirNext-Heavy'; font-size:43.4684px;">IT</text>
	<rect x="173.1" y="142.7" class="st1" width="153" height="53.1"/>
	<text transform="matrix(1 0 0 1 173.0537 175.5322)" class="st2" style="font-family:'AvenirNext-Heavy'; font-size:43.4684px;"> ARI   S</text>
	<rect x="182.1" y="142.9" class="st21" width="36" height="39.5"/>
	<rect x="266.2" y="141" class="st21" width="30.9" height="39.5"/>
	<g class="st2">
		<polygon class="st19" points="107.3,153.3 198.4,62.2 107.3,62.2 		"/>
	</g>
	<rect x="129.2" y="78.1" class="st21" width="53.8" height="9.9"/>
	<rect x="129.2" y="104.6" class="st21" width="53.8" height="31"/>
	<g class="st2">
		<polygon class="st19" points="138.4,205 229.5,113.8 138.4,113.8 		"/>
	</g>
	<rect x="160.3" y="130.8" class="st21" width="53.8" height="9.9"/>
	<rect x="160.3" y="156.3" class="st21" width="53.8" height="31"/>
	<polygon class="st22" points="216.8,175.4 216.8,145.6 187,175.4 	"/>
	<polygon class="st22" points="294.1,175.4 294.1,145.6 264.3,175.4 	"/>
</g>
<g id="_x36_" class="st0">
	<g class="st2">
		<polygon class="st19" points="-58.5,24.4 95.1,-129.3 -58.5,-129.3 		"/>
	</g>
	<rect x="-21.6" y="-87.6" class="st21" width="90.7" height="16.7"/>
	<g class="st2">
		<polygon class="st19" points="7.9,130.7 161.5,-23 7.9,-23 		"/>
	</g>
	<rect x="44.8" y="18.7" class="st21" width="90.7" height="16.7"/>
	<rect x="51.8" y="-78.6" class="st1" width="64.8" height="51.4"/>
	<text transform="matrix(1 0 0 1 51.8066 -34.4331)" class="st2 st24 st4">IT</text>
	<rect x="73.4" y="57.3" class="st1" width="219.1" height="51.4"/>
	<text transform="matrix(1 0 0 1 73.3916 101.4404)" class="st2 st24 st4">ARIAS</text>
</g>
<g id="_x37_" class="st0">
	<g class="st2">
		<polygon class="st19" points="143.9,-90.6 219,-90.6 260.6,-132.3 107,-132.3 107,-5 132.5,-5 107,20.6 107,21.4 202.3,-73.9 
			143.9,-73.9 		"/>
		<polygon class="st20" points="202.3,-73.9 234.6,-73.9 234.6,-90.6 219,-90.6 		"/>
		<polygon class="st19" points="-21.1,-5 -21.1,148.7 74.1,53.4 15.8,53.4 15.8,36.7 90.9,36.7 107,20.6 107,-5 		"/>
		<polygon class="st23" points="107,-5 107,20.6 132.5,-5 		"/>
		<polygon class="st20" points="106.5,53.4 106.5,36.7 90.9,36.7 74.1,53.4 		"/>
	</g>
	<rect x="109.8" y="1.4" class="st1" width="64.8" height="51.4"/>
	<text transform="matrix(1 0 0 1 109.8066 45.5669)" class="st2 st24 st4">IT</text>
	<rect x="73.4" y="57.3" class="st1" width="219.1" height="51.4"/>
	<text transform="matrix(1 0 0 1 73.3916 101.4404)" class="st2 st24 st4">ARIAS</text>
</g>
<g id="_x38_" class="st0">
	<g class="st2">
		<polygon class="st19" points="-0.1,-155.9 -77.4,-78.6 77.2,-78.6 		"/>
		<polygon class="st19" points="78,-74.5 -76.7,-74.5 0.6,2.9 		"/>
	</g>
	<rect x="0.9" y="-57.4" class="st21" width="64.6" height="11.9"/>
	<rect x="0.9" y="-26.7" class="st21" width="45.1" height="37.2"/>
	<polygon class="st21" points="-1,-127.6 -32.3,-96.3 30.4,-96.3 	"/>
	<g class="st2">
		<polygon class="st19" points="230.6,12.4 154.4,88.7 306.9,88.7 		"/>
		<polygon class="st19" points="307.6,92.7 155.2,92.7 231.4,169 		"/>
	</g>
	<polygon class="st21" points="295.3,121.3 209.9,121.3 202.5,109.6 295.3,109.6 	"/>
	<polygon class="st21" points="295.3,171.9 231.6,171.9 215.6,135.2 295.3,135.2 	"/>
	<g class="st2">
		<polygon class="st20" points="274.7,90 250.1,69 211.3,69 186.7,90 		"/>
	</g>
</g>
<g id="_x39_" class="st0">
	<g class="st2">
		<g>
			<g>
				<polygon points="-86.2,30.2 18.3,30.2 18.3,30.4 43.4,30.4 59.1,46 -41.3,46 18.3,105.5 18.3,134.6 				"/>
				<path d="M17.8,30.7v0.2h1h24.4l14.6,14.6H18.8h-58.8h-2.4l1.7,1.7l58.4,58.4l0.1,0.1v27.7l-87.6-87.6l-9.6-9.6l-5.5-5.5h11.9
					H17.8 M18.8,29.7h-91.8h-14.3l7.2,7.2l9.6,9.6l89.4,89.4v-31.3l-0.4,0.4l-58.4-58.4h58.8h41.5L43.6,29.9H18.8V29.7L18.8,29.7z"
					/>
			</g>
			<g>
				<polygon points="-9.7,69.6 -25.4,54 48.7,54 64,69.6 				"/>
				<path d="M48.5,54.5l14.4,14.6H-9.5l-14.6-14.6H48.5 M48.9,53.5h-75.5l16.6,16.6h75.1L48.9,53.5L48.9,53.5z"/>
			</g>
		</g>
	</g>
	<g class="st2">
		<g>
			<g>
				<polygon points="-24.3,92.6 80.2,92.6 80.2,92.8 105.3,92.8 121,108.4 20.6,108.4 80.2,168 80.2,197.1 				"/>
				<path d="M79.7,93.1v0.2h1h24.4l14.6,14.6H80.7H21.8h-2.4l1.7,1.7l58.4,58.4l0.1,0.1v27.7L-8,108.2l-9.6-9.6l-5.5-5.5h11.9H79.7
					 M80.7,92.1h-91.8h-14.3l7.2,7.2l9.6,9.6l89.4,89.4V167l-0.4,0.4l-58.4-58.4h58.8h41.5l-16.6-16.6H80.7V92.1L80.7,92.1z"/>
			</g>
			<g>
				<polygon points="52.2,132.1 36.5,116.5 110.6,116.5 125.9,132.1 				"/>
				<path d="M110.4,117l14.4,14.6H52.4L37.7,117H110.4 M110.8,116H35.3l16.6,16.6h75.1L110.8,116L110.8,116z"/>
			</g>
		</g>
	</g>
</g>
<g id="_x31_0" class="st0">
	<g class="st2">
		<g>
			<g>
				<polygon class="st11" points="185.5,-84.6 283.9,-84.6 283.9,-84.5 312.5,-84.5 322.1,-74.9 216.1,-74.9 283.9,-7.1 283.9,13.8 
									"/>
				<path d="M279.9-80.6v0.2h8h22.9l1.6,1.6h-24.5h-62.1h-19.3l13.7,13.7l59.8,59.8v9.6l-80.7-80.7l-4.1-4.1H279.9 M287.9-88.6h-97
					h-15.1l7.6,7.6l10.2,10.2l94.4,94.4V-9.6l-0.4,0.4l-61.7-61.7h62.1h43.8l-17.6-17.6h-26.3V-88.6L287.9-88.6z"/>
			</g>
			<g>
				<polygon class="st11" points="259.3,-49.9 249.7,-59.5 318,-59.5 327.4,-49.9 				"/>
				<path d="M316.4-55.5l1.5,1.6h-57l-1.6-1.6H316.4 M319.7-63.5H240l17.6,17.6H337L319.7-63.5L319.7-63.5z"/>
			</g>
		</g>
	</g>
	<g class="st2">
		<g>
			<g>
				<polygon points="76.3,-143.7 186.7,-143.7 186.7,-143.5 213.3,-143.5 229.8,-127 123.9,-127 186.7,-64.1 186.7,-33.3 				"/>
				<path d="M186.2-143.2v0.2h1H213l15.6,15.6h-41.4h-62.1h-2.4l1.7,1.7l61.7,61.7l0.1,0.1v29.4l-92.6-92.6l-10.2-10.2l-5.9-5.9
					h12.7H186.2 M187.2-144.2h-97H75.1l7.6,7.6l10.2,10.2l94.4,94.4v-33.1l-0.4,0.4l-61.7-61.7h62.1H231L213.5-144h-26.3V-144.2
					L187.2-144.2z"/>
			</g>
			<g>
				<polygon points="157.1,-102 140.5,-118.6 218.8,-118.6 235,-102 				"/>
				<path d="M218.6-118.1l15.3,15.6h-76.6l-15.6-15.6H218.6 M219-119.1h-79.7l17.6,17.6h79.4L219-119.1L219-119.1z"/>
			</g>
		</g>
	</g>
</g>
<g id="Layer_13" class="st0">
	<polyline class="st25" points="35,120.8 62.1,98.5 62.1,51 110.4,51 135.9,30.5 62.1,30.5 62.1,-9.2 111.8,-9.2 140.6,-33 35,-33 	
		"/>
	<polyline class="st26" points="143.6,-9.2 191.4,-9.2 220.2,-33 143.6,-33 	"/>
	<polyline class="st26" points="143.6,49.1 184,49.1 211,29 143.6,29 	"/>
	<g class="st2">
		<polygon class="st27" points="123.5,-15.1 116.2,-8.4 116.2,27.8 140.9,27.8 140.9,-29.7 		"/>
		<polygon class="st27" points="116.2,51.2 116.2,98.3 140.9,119.7 140.9,29.2 		"/>
		<path class="st27" d="M146.2-31.1"/>
	</g>
	<g class="st2">
		<path class="st28" d="M34.4-41.5v-27.4h19.4v5.1H40.2v5.8h13.3v5.1H40.2v11.4H34.4z"/>
		<path class="st28" d="M57.8-41.5v-27.4h5.8v27.4H57.8z"/>
		<path class="st28" d="M75.4-41.5v-22.3h-8v-5.1h21.9v5.1h-8v22.3H75.4z"/>
		<path class="st28" d="M93.7-41.5v-27.4h17.4v2.1H96v10.1h14.7v2.1H96v13H93.7z"/>
		<path class="st28" d="M134.4-41.5l-2.7-6.7h-14.5l-2.7,6.7h-2.7L123-68.9h2.9l11.2,27.4H134.4z M124.5-66.4l-6.5,16h12.9
			L124.5-66.4z"/>
		<path class="st28" d="M157.2-41.5l-7.7-11.3h-6v11.3h-2.3v-27.4h10.2c4.7,0,8.3,3,8.3,8c0,5-3.5,7.7-7.6,7.9l7.9,11.5H157.2z
			 M157.3-60.9c0-3.4-2.4-5.9-6.1-5.9h-7.7v11.8h7.7C154.8-54.9,157.3-57.4,157.3-60.9z"/>
		<path class="st28" d="M165.5-41.5v-27.4h2.3v27.4H165.5z"/>
		<path class="st28" d="M194.5-41.5l-2.7-6.7h-14.5l-2.7,6.7h-2.7l11.2-27.4h2.9l11.2,27.4H194.5z M184.6-66.4l-6.5,16H191
			L184.6-66.4z"/>
		<path class="st28" d="M199.1-45.3l1.5-1.8c1.8,2,4.6,4,8.6,4c5.6,0,7.2-3.1,7.2-5.5c0-8.1-16.4-3.9-16.4-13.4c0-4.5,4-7.3,9-7.3
			c4.1,0,7.2,1.4,9.3,3.9l-1.6,1.7c-2-2.4-4.8-3.5-7.8-3.5c-3.7,0-6.4,2.1-6.4,5.1c0,7,16.4,3.2,16.4,13.4c0,3.5-2.3,7.8-9.7,7.8
			C204.6-41,201.1-42.8,199.1-45.3z"/>
	</g>
	<text transform="matrix(1 0 0 1 33.5402 -80.5668)" style="font-family:'ProximaNova-Regular'; font-size:24.8883px;">Personal Training</text>
</g>
<g id="Layer_14">
	<polygon class="st29" points="240.7,46.3 3,46.3 24.7,2.3 262.4,2.3 	"/>
	<text transform="matrix(1 0 0 1 103 30.25)" class="st30 st10 st31">Home</text>
</g>
<g id="Layer_15" class="st0">
</g>
</svg>
