<?xml version="1.0" encoding="utf-8"?>
<!-- Generator: Adobe Illustrator 19.2.0, SVG Export Plug-In . SVG Version: 6.00 Build 0)  -->
<svg version="1.1" xmlns="http://www.w3.org/2000/svg" xmlns:xlink="http://www.w3.org/1999/xlink" x="0px" y="0px"
	 viewBox="0 0 266.3 48" style="enable-background:new 0 0 266.3 48;" xml:space="preserve">
<style type="text/css">
	.st0{display:none;}
	.st1{display:inline;fill:none;}
	.st2{display:inline;}
	.st3{font-family:'FuturaStd-ExtraBold';}
	.st4{font-size:60px;}
	.st5{font-family:'FuturaStd-Heavy';}
	.st6{font-size:24px;}
	.st7{font-family:'FuturaStd-Light';}
	.st8{font-size:18px;}
	.st9{font-size:35px;}
	.st10{font-family:'ProximaNova-Semibold';}
	.st11{fill:#FFFFFF;}
	.st12{display:inline;fill:#FFFFFF;}
	.st13{display:inline;fill:#A7A9AC;}
	.st14{fill:#58595B;}
	.st15{font-family:'Archer-Bold';}
	.st16{font-size:26px;}
	.st17{font-family:'ARDESTINE';}
	.st18{display:inline;fill:none;stroke:#FFFFFF;stroke-width:3;stroke-miterlimit:10;}
	.st19{stroke:#000000;stroke-miterlimit:10;}
	.st20{fill:#FFFFFF;stroke:#FFFFFF;stroke-miterlimit:10;}
	.st21{display:inline;fill:#FFFFFF;stroke:#FFFFFF;stroke-miterlimit:10;}
	.st22{display:inline;stroke:#000000;stroke-miterlimit:10;}
	.st23{fill:#FFFFFF;stroke:#FFFFFF;stroke-width:3;stroke-miterlimit:10;}
	.st24{font-family:'CenturyGothic-Bold';}
	.st25{display:inline;fill:#006E44;}
	.st26{display:inline;fill:#18AE6F;}
	.st27{fill:#088C58;}
	.st28{fill:#18AE6F;}
	.st29{display:inline;stroke:#18AE6F;stroke-width:4;stroke-miterlimit:10;}
	.st30{display:inline;fill:#F1F2F2;}
	.st31{font-size:21px;}
	.st32{stroke:#18AE6F;stroke-width:4;stroke-miterlimit:10;}
	.st33{fill:#F1F2F2;}
</style>
<g id="Layer_1" class="st0">
	<rect x="29.2" y="-28.8" class="st1" width="42.8" height="52.6"/>
	<text transform="matrix(1 0 0 1 29.2025 19.8258)" class="st2 st3 st4">F</text>
	<rect x="-289.6" y="-152.6" class="st1" width="146.8" height="27.7"/>
	<text transform="matrix(1 0 0 1 -289.5995 -132.776)" class="st2 st6" style="font-family:'FuturaStd-Book';">Ashley Farias</text>
	<rect x="-289.6" y="-119.7" class="st1" width="146.8" height="27.7"/>
	<text transform="matrix(1 0 0 1 -289.5995 -99.8755)" class="st2 st6" style="font-family:'FuturaStd-BookOblique';">Ashley Farias</text>
	<rect x="-292.6" y="-86.8" class="st1" width="190" height="25.1"/>
	<text transform="matrix(1 0 0 1 -292.6299 -66.8555)" class="st2 st6" style="font-family:'FuturaStd-Bold';">Ashley Farias</text>
	<rect x="-292.6" y="-53.1" class="st1" width="190" height="25.1"/>
	<text transform="matrix(1 0 0 1 -292.6299 -34.8601)" class="st2 st6" style="font-family:'GloriolaStd-Light';">Ashley Farias</text>
	<rect x="-292.6" y="-23.6" class="st1" width="190" height="25.1"/>
	<text transform="matrix(1 0 0 1 -292.6299 -5.7394)" class="st2 st6" style="font-family:'Hermes-Regular';">Ashley Farias</text>
	<rect x="-292.6" y="8.5" class="st1" width="190" height="25.1"/>
	<text transform="matrix(1 0 0 1 -292.6299 25.6951)" class="st2 st6" style="font-family:'MundoSans';">Ashley Farias</text>
	<rect x="-292.6" y="37.9" class="st1" width="190" height="25.1"/>
	<text transform="matrix(1 0 0 1 -292.6299 54.772)" class="st2 st6" style="font-family:'MuseoSlab-300';">Ashley Farias</text>
	<rect x="-292.6" y="65.2" class="st1" width="190" height="25.1"/>
	<text transform="matrix(1 0 0 1 -292.6299 81.181)" class="st2 st6" style="font-family:'ProximaNova-Regular';">Ashley Farias</text>
	<rect x="-292.6" y="115.8" class="st1" width="190" height="25.1"/>
	<text transform="matrix(1 0 0 1 -292.6299 135.5818)" class="st2" style="font-family:'Averoster'; font-size:40px;">Ashley Farias</text>
	<rect x="-353.1" y="93.7" class="st1" width="223.4" height="18.6"/>
	<text transform="matrix(1 0 0 1 -353.0628 111.7451)" class="st2 st6" style="font-family:'BigJohn';">Ashley Farias</text>
	<rect x="-82.6" y="-152.6" class="st1" width="232.5" height="37.7"/>
	<text transform="matrix(1 0 0 1 -82.6493 -125.8959)" class="st2"><tspan x="0" y="0" style="font-family:'ProximaNova-Thin'; font-size:40px;">Fit</tspan><tspan x="52" y="0" style="font-family:'ProximaNova-Black'; font-size:40px;">Farias</tspan></text>
	<rect x="139.1" y="-148.5" class="st1" width="232.5" height="37.7"/>
	<text transform="matrix(1 0 0 1 139.1305 -121.7834)" class="st2"><tspan x="0" y="0" style="font-family:'ProximaNova-Light'; font-size:40px;">Fit</tspan><tspan x="53.2" y="0" style="font-family:'ProximaNova-Black'; font-size:40px;">Farias</tspan></text>
	<rect x="-81.4" y="-116.2" class="st1" width="232.5" height="37.7"/>
	<text transform="matrix(1 0 0 1 -81.3506 -83.1904)" class="st2"><tspan x="0" y="0" class="st3" style="font-size:40px;">Fit</tspan><tspan x="64" y="0" class="st7" style="font-size:40px;">Farias</tspan></text>
	<rect x="-84.3" y="-25" class="st1" width="109.3" height="52.6"/>
	<text transform="matrix(1 0 0 1 -84.337 23.7042)" class="st2 st3 st4">F</text>
	<rect x="-83.9" y="-69.9" class="st1" width="232.5" height="37.7"/>
	<text transform="matrix(1 0 0 1 -83.948 -36.9133)" class="st2"><tspan x="0" y="0" class="st3" style="font-size:40px;">Fit</tspan><tspan x="64" y="0" style="font-family:'ProximaNova-Light'; font-size:45px;">F</tspan><tspan x="88.4" y="0" class="st7" style="font-size:40px;">arias</tspan></text>
	<rect x="-48.2" y="-24" class="st1" width="80.1" height="57.6"/>
	<text transform="matrix(1 0 0 1 -48.1592 -3.6028)" class="st2"><tspan x="0" y="0" class="st5 st6">it</tspan><tspan x="0" y="27" class="st7 st6">farias</tspan></text>
	<rect x="51.5" y="3.9" class="st1" width="29.8" height="22.8"/>
	<text transform="matrix(1 0 0 1 51.46 19.1786)" class="st2 st5 st8">it</text>
	<rect x="63.1" y="-9.2" class="st1" width="116.8" height="36.9"/>
	<text transform="matrix(1 0 0 1.1 63.1299 19.6991)" class="st2 st7 st9">farias</text>
	<rect x="-81.4" y="37.9" class="st1" width="299.5" height="27.3"/>
	<text transform="matrix(1 0 0 1 -81.3506 61.2452)" class="st2 st10 st9">Farias Fitness</text>
	<rect x="-89.9" y="106.2" class="st1" width="30.3" height="27.3"/>
	<text transform="matrix(1 0 0 1 -89.8696 129.4952)" class="st2 st10 st9">F</text>
	<rect x="-83.4" y="71.5" class="st1" width="299.5" height="31.5"/>
	<text transform="matrix(1 0 0 1 -83.3696 96.0027)" class="st2 st9" style="font-family:'MuseoSans-100';">Farias Fitness</text>
	<g class="st2">
		<rect x="116.4" y="-109.3" style="fill:none;" width="87" height="63.3"/>
		<text transform="matrix(1 0 0 1 116.4167 -49.4912)" style="font-family:'FuturaStd-Bold'; font-size:72px;">A</text>
		<polygon style="fill:none;" points="131.3,-68.1 188.7,-68.1 182.7,-33.9 125.3,-33.9 		"/>
		
			<text transform="matrix(0.9848 0 -0.1736 0.9848 128.9837 -54.9339)" class="st11" style="font-family:'ProximaNova-LightIt'; font-size:20px;">F</text>
		<polygon style="fill:none;" points="225,-63 143.2,-63 144.1,-68.1 225.9,-68.1 		"/>
		
			<text transform="matrix(0.9848 0 -0.1736 0.9848 143.4641 -64.7355)" class="st11" style="font-family:'ProximaNova-LightIt'; font-size:5.0771px;">arias</text>
		<polygon style="fill:none;" points="223,-58.5 141.1,-58.5 142,-63.6 223.9,-63.6 		"/>
		
			<text transform="matrix(0.9848 0 -0.1736 0.9848 141.4206 -60.2356)" class="st11" style="font-family:'ProximaNova-LightIt'; font-size:5.0771px;">itness</text>
	</g>
	<g class="st2">
		<g>
			<path d="M226.4-25.9L219.7-9h-26.8l37.4-97.1h27.6L294.4-9h-26.9l-6.3-16.9H226.4z M244-76.1h-0.3l-10.4,30.9h21L244-76.1z"/>
		</g>
		<g>
			<path class="st11" d="M216.9-18.8l9.3-23.5h14.9l-0.7,1.8h-12.9l-3.4,8.7h12.6l-0.7,1.8h-12.6l-4.4,11.1H216.9z"/>
		</g>
		<g>
			<path class="st11" d="M246.4-36.3l0-1.5h-3.2l-1.2,1.5h-0.6l4.8-6h0.6l0.1,6H246.4z M246.4-41.8l-2.8,3.5h2.8L246.4-41.8z"/>
			<path class="st11" d="M251.4-36.3l-0.7-2.5h-1.4l-1,2.5h-0.5l2.4-6h2.1c0.8,0,1.5,0.5,1.4,1.5c-0.2,1.1-1.1,1.9-2.4,2l0.7,2.5
				H251.4z M251.2-39.3c1,0,1.7-0.7,1.9-1.5c0.1-0.6-0.4-1.1-0.9-1.1h-1.6l-1,2.6H251.2L251.2-39.3z"/>
			<path class="st11" d="M253.2-36.3l2.4-6h0.5l-2.4,6H253.2z"/>
			<path class="st11" d="M259.5-36.3l0-1.5h-3.2l-1.2,1.5h-0.6l4.8-6h0.6l0.1,6H259.5z M259.5-41.8l-2.8,3.5h2.8L259.5-41.8z"/>
			<path class="st11" d="M260.9-37.3l0.4-0.4c0.3,0.6,0.9,1,1.8,1c1.1,0,1.6-0.7,1.7-1.3c0.2-1.3-2.8-1.1-2.5-2.7
				c0.2-0.9,1.2-1.7,2.3-1.7c0.9,0,1.6,0.4,1.9,0.9l-0.5,0.4c-0.3-0.6-0.9-0.8-1.6-0.8c-0.8,0-1.5,0.6-1.6,1.1
				c-0.2,1.2,2.8,1,2.5,2.7c-0.2,0.9-1,1.8-2.4,1.8C262-36.2,261.2-36.7,260.9-37.3z"/>
		</g>
		<g>
			<path class="st11" d="M238.4-28.3l2.4-6h0.5l-2.4,6H238.4z"/>
			<path class="st11" d="M241.9-28.3l2.2-5.5h-2l0.2-0.5h4.4l-0.2,0.5h-2l-2.2,5.5H241.9z"/>
			<path class="st11" d="M249.7-28.3l-1.7-5.2l-2.1,5.2h-0.5l2.4-6h0.5l1.7,5.1l2-5.1h0.5l-2.4,6H249.7z"/>
			<path class="st11" d="M251.7-28.3l2.4-6h3.8l-0.2,0.5h-3.3l-0.9,2.2h3.2l-0.2,0.5h-3.2l-0.9,2.4h3.3l-0.2,0.5H251.7z"/>
			<path class="st11" d="M256.9-29.2l0.4-0.4c0.3,0.6,0.9,1,1.8,1c1.1,0,1.6-0.7,1.7-1.3c0.2-1.3-2.8-1.1-2.5-2.7
				c0.2-0.9,1.2-1.7,2.3-1.7c0.9,0,1.6,0.4,1.9,0.9l-0.4,0.4c-0.3-0.6-0.9-0.8-1.6-0.8c-0.8,0-1.5,0.6-1.6,1.1
				c-0.2,1.2,2.8,1,2.5,2.7c-0.2,0.9-1,1.8-2.4,1.8C257.9-28.2,257.1-28.6,256.9-29.2z"/>
			<path class="st11" d="M262.1-29.2l0.4-0.4c0.3,0.6,0.9,1,1.8,1c1.1,0,1.6-0.7,1.7-1.3c0.2-1.3-2.8-1.1-2.5-2.7
				c0.2-0.9,1.2-1.7,2.3-1.7c0.9,0,1.6,0.4,1.9,0.9l-0.4,0.4c-0.3-0.6-0.9-0.8-1.6-0.8c-0.8,0-1.5,0.6-1.6,1.1
				c-0.2,1.2,2.8,1,2.5,2.7c-0.2,0.9-1,1.8-2.4,1.8C263.1-28.2,262.3-28.6,262.1-29.2z"/>
		</g>
	</g>
	<polygon class="st1" points="36.7,193.1 -95.1,193.1 -78.2,151.3 53.5,151.3 	"/>
	
		<text transform="matrix(0.9272 0 -0.3746 0.9272 -91.1553 183.3204)" class="st2" style="font-family:'ProximaNova-Thin'; font-size:51.7697px;">A</text>
	<rect x="-63.6" y="151.3" class="st1" width="71.8" height="33.5"/>
	<text transform="matrix(1 0 0 1 -63.6368 183.3202)" class="st2" style="font-family:'ProximaNova-Thin'; font-size:48px;">F</text>
	
		<rect x="-88.8" y="127.8" transform="matrix(0.7712 -0.6366 0.6366 0.7712 -102.0989 -24.1405)" class="st12" width="8.3" height="4.3"/>
	
		<rect x="-77.1" y="108.1" transform="matrix(0.7712 -0.6366 0.6366 0.7712 -86.8558 -21.2176)" class="st12" width="8.3" height="4.3"/>
	
		<rect x="-77.1" y="116.6" transform="matrix(0.7712 -0.6366 0.6366 0.7712 -92.2997 -19.2159)" class="st12" width="8.3" height="4.3"/>
	<polygon class="st2" points="-23.7,144 -23.7,130.7 -11.2,130.7 -2.6,123.6 -23.7,123.6 -23.7,111.7 -8.8,111.7 -0.2,104.5 
		-31.9,104.5 -31.9,150.7 	"/>
	<polygon class="st2" points="-2.9,144 -2.9,130.7 9.7,130.7 18.3,123.6 -2.9,123.6 -2.9,111.7 12.1,111.7 20.7,104.5 -11,104.5 
		-11,150.7 	"/>
	<polygon class="st13" points="240.6,96.4 240.6,71.6 265.9,71.6 279.2,60.9 240.6,60.9 240.6,40.1 266.6,40.1 281.7,27.6 
		226.4,27.6 226.4,108.1 	"/>
	<polyline class="st2" points="283.2,40.1 308.2,40.1 323.3,27.6 283.2,27.6 	"/>
	<g class="st2">
		<polygon class="st14" points="272.7,37 268.9,40.5 268.9,59.5 281.8,59.5 281.8,29.4 		"/>
		<polygon class="st14" points="268.9,71.7 268.9,96.3 281.8,107.5 281.8,60.2 		"/>
		<path class="st11" d="M284.6,28.7"/>
	</g>
	<rect x="10.1" y="126.9" class="st1" width="61" height="39.3"/>
	<text transform="matrix(1 0 0 1 10.1304 153.9307)" class="st2" style="font-family:'BigJohn'; font-size:36px;">AF</text>
	<rect x="226" y="112.6" class="st1" width="93" height="14.2"/>
	<text transform="matrix(1 0 0 1 225.9851 121.9274)" class="st2"><tspan x="0" y="0" style="font-family:'ProximaNova-Bold'; font-size:14px;">Fit</tspan><tspan x="20" y="0" style="font-family:'ProximaNova-Light'; font-size:14px;">Farias</tspan></text>
</g>
<g id="Layer_2" class="st0">
	<text transform="matrix(1 0 0 1 -78.8616 -141.9256)" class="st2 st6" style="font-family:'ROSKA';">Fit Farias</text>
	<text transform="matrix(1 0 0 1 -82.7918 -111.7946)" class="st2 st6" style="font-family:'RotisSansSerifStd';">FIT FARIAS</text>
	<text transform="matrix(1 0 0 1 -82.7918 -79.9169)" class="st2 st6" style="font-family:'Vani';">FIT FARIAS</text>
	<text transform="matrix(1 0 0 1 -83.2284 -53.2793)" class="st2 st16" style="font-family:'Rockwell-Bold';">FIT FARIAS</text>
	<text transform="matrix(1 0 0 1 -83.6651 -30.5719)" class="st2 st6" style="font-family:'Memphis-Light';">FIT FARIAS</text>
	<text transform="matrix(1 0 0 1 -83.2284 -8.3012)" class="st2 st6" style="font-family:'Elephant-Regular';">FIT FARIAS</text>
	<text transform="matrix(1 0 0 1 -84.1018 14.4063)" class="st2 st15 st16">FIT FARIAS</text>
	<text transform="matrix(1 0 0 1 -85.8485 37.5504)" class="st2 st6" style="font-family:'Averoster';">FIT FARIAS</text>
	<text transform="matrix(1 0 0 1 -85.8485 60.2578)" class="st2 st17 st6">FIT FARIAS</text>
	<rect x="-81.5" y="82.5" class="st1" width="194.3" height="62.9"/>
	<text transform="matrix(1 0 0 1 -81.4818 99.8555)" class="st2 st6" style="font-family:'UniversLTStd-Black';">FIT FARIAS</text>
	<line class="st18" x1="74.4" y1="94.8" x2="-83.2" y2="94.8"/>
</g>
<g id="_x31_" class="st0">
	<polyline class="st13" points="31.4,73.6 59.1,50.8 59.1,2.3 108.4,2.3 134.5,-18.6 59.1,-18.6 59.1,-59.2 109.8,-59.2 
		139.3,-83.5 31.4,-83.5 	"/>
	<polyline class="st2" points="142.3,-59.2 191.1,-59.2 220.6,-83.5 142.3,-83.5 	"/>
	<g class="st2">
		<polygon class="st14" points="121.7,-65.1 114.3,-58.3 114.3,-21.4 139.6,-21.4 139.6,-80.1 		"/>
		<polygon class="st14" points="114.3,2.5 114.3,50.6 139.6,72.4 139.6,-19.9 		"/>
		<path class="st11" d="M144.9-81.5"/>
	</g>
	<rect x="30.5" y="82.4" class="st1" width="181.6" height="46.9"/>
	<text transform="matrix(1 0 0 1 30.5451 107.1123)" class="st2"><tspan x="0" y="0" style="font-family:'ProximaNova-Bold'; font-size:37.057px;">Fit</tspan><tspan x="52.9" y="0" style="font-family:'ProximaNova-Light'; font-size:37.057px;">FARIAS</tspan></text>
</g>
<g id="_x32_" class="st0">
	<g class="st2">
		<g>
			<path d="M91,50L78.6,81.5h-50L98.3-99.6h51.4l68.2,181.1h-50.2L155.9,50H91z M124-43.7h-0.5L104,14h39.2L124-43.7z"/>
		</g>
		<g>
			<path class="st11" d="M73.4,63.2l17.4-43.8h27.8l-1.3,3.4H93.2l-6.4,16.2h23.5l-1.4,3.4H85.4l-8.3,20.8H73.4z"/>
		</g>
		<g>
			<path class="st11" d="M128.4,30.6l0-2.7h-5.9l-2.2,2.7h-1.2l9-11.1h1.2l0.1,11.1H128.4z M128.4,20.4l-5.2,6.5h5.3L128.4,20.4z"/>
			<path class="st11" d="M137.7,30.6l-1.3-4.6h-2.5l-1.8,4.6h-1l4.4-11.1h3.8c1.5,0,2.8,1,2.5,2.8c-0.4,2.1-2.1,3.6-4.5,3.7l1.4,4.7
				H137.7z M137.3,25.1c2,0,3.2-1.3,3.5-2.8c0.2-1.2-0.7-2-1.7-2h-3l-1.9,4.8H137.3L137.3,25.1z"/>
			<path class="st11" d="M141,30.6l4.4-11.1h1L142,30.6H141z"/>
			<path class="st11" d="M152.8,30.6l0-2.7h-5.9l-2.2,2.7h-1.2l9-11.1h1.2l0.1,11.1H152.8z M152.8,20.4l-5.2,6.5h5.3L152.8,20.4z"/>
			<path class="st11" d="M155.4,28.8l0.8-0.7c0.6,1.1,1.7,1.8,3.3,1.8c2,0,3-1.3,3.2-2.4c0.4-2.5-5.2-2-4.7-5.1
				c0.3-1.7,2.2-3.1,4.3-3.1c1.7,0,3,0.7,3.5,1.7l-0.8,0.7c-0.5-1.1-1.7-1.5-2.9-1.5c-1.5,0-2.8,1-3,2.1c-0.4,2.2,5.2,1.9,4.7,5.1
				c-0.3,1.7-2,3.4-4.5,3.4C157.4,30.7,155.9,29.9,155.4,28.8z"/>
		</g>
		<g>
			<path class="st11" d="M113.5,45.6l4.4-11.1h1l-4.4,11.1H113.5z"/>
			<path class="st11" d="M120.1,45.6l4.1-10.3h-3.6l0.3-0.9h8.2l-0.3,0.9h-3.6L121,45.6H120.1z"/>
			<path class="st11" d="M134.6,45.6l-3.2-9.6l-3.8,9.6h-1l4.4-11.1h1l3.2,9.5l3.8-9.5h1l-4.4,11.1H134.6z"/>
			<path class="st11" d="M138.3,45.6l4.4-11.1h7.1l-0.3,0.9h-6.1l-1.6,4.1h6l-0.4,0.9h-6l-1.8,4.4h6.1l-0.3,0.9H138.3z"/>
			<path class="st11" d="M147.9,43.8l0.8-0.7c0.6,1.1,1.7,1.8,3.3,1.8c2,0,3-1.3,3.2-2.4c0.4-2.4-5.2-2-4.7-5.1
				c0.3-1.7,2.2-3.1,4.3-3.1c1.7,0,3,0.7,3.5,1.7l-0.8,0.7c-0.5-1.1-1.7-1.5-2.9-1.5c-1.5,0-2.8,1-3,2.1c-0.4,2.2,5.2,1.9,4.7,5.1
				c-0.3,1.7-2,3.4-4.5,3.4C149.9,45.8,148.4,44.9,147.9,43.8z"/>
			<path class="st11" d="M157.6,43.8l0.8-0.7c0.6,1.1,1.7,1.8,3.3,1.8c2,0,3-1.3,3.2-2.4c0.4-2.4-5.2-2-4.7-5.1
				c0.3-1.7,2.2-3.1,4.3-3.1c1.7,0,3,0.7,3.5,1.7l-0.8,0.7c-0.5-1.1-1.7-1.5-2.9-1.5c-1.5,0-2.8,1-3,2.1c-0.4,2.2,5.2,1.9,4.7,5.1
				c-0.3,1.7-2,3.4-4.5,3.4C159.6,45.8,158.1,44.9,157.6,43.8z"/>
		</g>
	</g>
</g>
<g id="_x33_" class="st0">
	<g class="st2">
		<polygon class="st19" points="10.6,-48.2 10.6,-131.2 -72.4,-48.2 		"/>
		<polygon class="st20" points="-3.5,-62.7 -3.5,-96.4 -37.1,-62.7 		"/>
		<polygon class="st19" points="17.9,-48.5 100.9,-131.5 17.9,-131.5 		"/>
	</g>
	<rect x="37.9" y="-116" class="st21" width="49" height="9"/>
	<rect x="37.9" y="-92.8" class="st21" width="49" height="28.2"/>
</g>
<g id="_x34_" class="st0">
	<g class="st2">
		<polygon class="st19" points="68.1,72.8 68.1,-71.3 -76,72.8 		"/>
		<polygon class="st20" points="38.4,42.8 38.4,2.4 -2,42.8 		"/>
		<polygon class="st19" points="80.8,72.4 224.9,-71.7 80.8,-71.7 		"/>
	</g>
	<rect x="115.4" y="-32.6" class="st21" width="85.1" height="15.7"/>
</g>
<g id="_x35_" class="st0">
	<rect x="184.9" y="78" class="st1" width="134.3" height="46.4"/>
	<text transform="matrix(1 0 0 1 184.9342 110.8457)" class="st2" style="font-family:'AvenirNext-Heavy'; font-size:43.4684px;">IT</text>
	<rect x="173.7" y="142.4" class="st1" width="153" height="53.1"/>
	<text transform="matrix(1 0 0 1 173.7204 175.2822)" class="st2" style="font-family:'AvenirNext-Heavy'; font-size:43.4684px;"> ARI   S</text>
	<rect x="182.7" y="142.6" class="st21" width="36" height="39.5"/>
	<rect x="266.8" y="140.7" class="st21" width="30.9" height="39.5"/>
	<g class="st2">
		<polygon class="st19" points="107.9,153 199,61.9 107.9,61.9 		"/>
	</g>
	<rect x="129.8" y="77.9" class="st21" width="53.8" height="9.9"/>
	<rect x="129.8" y="104.4" class="st21" width="53.8" height="31"/>
	<g class="st2">
		<polygon class="st19" points="139.1,204.7 230.2,113.6 139.1,113.6 		"/>
	</g>
	<rect x="161" y="130.6" class="st21" width="53.8" height="9.9"/>
	<rect x="161" y="156.1" class="st21" width="53.8" height="31"/>
	<polygon class="st22" points="217.4,175.2 217.4,145.4 187.6,175.2 	"/>
	<polygon class="st22" points="294.7,175.2 294.7,145.4 264.9,175.2 	"/>
</g>
<g id="_x36_" class="st0">
	<g class="st2">
		<polygon class="st19" points="-57.9,24.2 95.8,-129.5 -57.9,-129.5 		"/>
	</g>
	<rect x="-20.9" y="-87.9" class="st21" width="90.7" height="16.7"/>
	<g class="st2">
		<polygon class="st19" points="8.5,130.5 162.2,-23.2 8.5,-23.2 		"/>
	</g>
	<rect x="45.5" y="18.4" class="st21" width="90.7" height="16.7"/>
	<rect x="52.5" y="-78.8" class="st1" width="64.8" height="51.4"/>
	<text transform="matrix(1 0 0 1 52.4733 -34.6831)" class="st2 st24 st4">IT</text>
	<rect x="74.1" y="57" class="st1" width="219.1" height="51.4"/>
	<text transform="matrix(1 0 0 1 74.0583 101.1904)" class="st2 st24 st4">ARIAS</text>
</g>
<g id="_x37_" class="st0">
	<g class="st2">
		<polygon class="st19" points="144.6,-90.9 219.6,-90.9 261.3,-132.5 107.6,-132.5 107.6,-5.2 133.2,-5.2 107.6,20.3 107.6,21.2 
			202.9,-74.1 144.6,-74.1 		"/>
		<polygon class="st20" points="202.9,-74.1 235.3,-74.1 235.3,-90.9 219.6,-90.9 		"/>
		<polygon class="st19" points="-20.5,-5.2 -20.5,148.5 74.8,53.2 16.5,53.2 16.5,36.4 91.5,36.4 107.6,20.3 107.6,-5.2 		"/>
		<polygon class="st23" points="107.6,-5.2 107.6,20.3 133.2,-5.2 		"/>
		<polygon class="st20" points="107.2,53.2 107.2,36.4 91.5,36.4 74.8,53.2 		"/>
	</g>
	<rect x="110.5" y="1.2" class="st1" width="64.8" height="51.4"/>
	<text transform="matrix(1 0 0 1 110.4733 45.3169)" class="st2 st24 st4">IT</text>
	<rect x="74.1" y="57" class="st1" width="219.1" height="51.4"/>
	<text transform="matrix(1 0 0 1 74.0583 101.1904)" class="st2 st24 st4">ARIAS</text>
</g>
<g id="_x38_" class="st0">
	<g class="st2">
		<polygon class="st19" points="0.6,-156.2 -76.8,-78.8 77.9,-78.8 		"/>
		<polygon class="st19" points="78.6,-74.7 -76,-74.7 1.3,2.6 		"/>
	</g>
	<rect x="1.6" y="-57.6" class="st21" width="64.6" height="11.9"/>
	<rect x="1.6" y="-27" class="st21" width="45.1" height="37.2"/>
	<polygon class="st21" points="-0.3,-127.8 -31.6,-96.5 31,-96.5 	"/>
	<g class="st2">
		<polygon class="st19" points="231.3,12.2 155.1,88.4 307.5,88.4 		"/>
		<polygon class="st19" points="308.3,92.5 155.8,92.5 232.1,168.7 		"/>
	</g>
	<polygon class="st21" points="295.9,121 210.6,121 203.2,109.3 295.9,109.3 	"/>
	<polygon class="st21" points="295.9,171.6 232.3,171.6 216.3,134.9 295.9,134.9 	"/>
	<g class="st2">
		<polygon class="st20" points="275.3,89.7 250.7,68.8 212,68.8 187.4,89.7 		"/>
	</g>
</g>
<g id="_x39_" class="st0">
	<g class="st2">
		<g>
			<g>
				<polygon points="-85.5,29.9 18.9,29.9 18.9,30.1 44.1,30.1 59.7,45.7 -40.6,45.7 18.9,105.3 18.9,134.4 				"/>
				<path d="M18.4,30.4v0.2h1h24.4l14.6,14.6H19.4h-58.8h-2.4l1.7,1.7l58.4,58.4l0.1,0.1v27.7l-87.6-87.6l-9.6-9.6l-5.5-5.5h11.9
					H18.4 M19.4,29.4h-91.8h-14.3l7.2,7.2l9.6,9.6l89.4,89.4v-31.3l-0.4,0.4l-58.4-58.4h58.8h41.5L44.3,29.6H19.4V29.4L19.4,29.4z"
					/>
			</g>
			<g>
				<polygon points="-9.1,69.4 -24.7,53.7 49.3,53.7 64.7,69.4 				"/>
				<path d="M49.1,54.2l14.4,14.6H-8.9l-14.6-14.6H49.1 M49.5,53.2h-75.5l16.6,16.6h75.1L49.5,53.2L49.5,53.2z"/>
			</g>
		</g>
	</g>
	<g class="st2">
		<g>
			<g>
				<polygon points="-23.6,92.4 80.8,92.4 80.8,92.6 106,92.6 121.6,108.2 21.3,108.2 80.8,167.7 80.8,196.8 				"/>
				<path d="M80.3,92.9v0.2h1h24.4l14.6,14.6H81.3H22.5h-2.4l1.7,1.7l58.4,58.4l0.1,0.1v27.7L-7.3,108l-9.6-9.6l-5.5-5.5h11.9H80.3
					 M81.3,91.9h-91.8h-14.3l7.2,7.2l9.6,9.6L81.3,198v-31.3l-0.4,0.4l-58.4-58.4h58.8h41.5l-16.6-16.6H81.3V91.9L81.3,91.9z"/>
			</g>
			<g>
				<polygon points="52.8,131.8 37.2,116.2 111.2,116.2 126.6,131.8 				"/>
				<path d="M111,116.7l14.4,14.6H53l-14.6-14.6H111 M111.4,115.7H36l16.6,16.6h75.1L111.4,115.7L111.4,115.7z"/>
			</g>
		</g>
	</g>
</g>
<g id="_x31_0" class="st0">
	<g class="st2">
		<g>
			<g>
				<polygon class="st11" points="186.2,-84.9 284.6,-84.9 284.6,-84.7 313.2,-84.7 322.8,-75.2 216.8,-75.2 284.6,-7.4 284.6,13.5 
									"/>
				<path d="M280.6-80.9v0.2h8h22.9l1.6,1.6h-24.5h-62.1h-19.3l13.7,13.7l59.8,59.8v9.6l-80.7-80.7l-4.1-4.1H280.6 M288.6-88.9h-97
					h-15.1l7.6,7.6l10.2,10.2l94.4,94.4V-9.9l-0.4,0.4l-61.7-61.7h62.1h43.8l-17.6-17.6h-26.3V-88.9L288.6-88.9z"/>
			</g>
			<g>
				<polygon class="st11" points="259.9,-50.2 250.4,-59.8 318.7,-59.8 328.1,-50.2 				"/>
				<path d="M317-55.8l1.5,1.6h-57l-1.6-1.6H317 M320.4-63.8h-79.7l17.6,17.6h79.4L320.4-63.8L320.4-63.8z"/>
			</g>
		</g>
	</g>
	<g class="st2">
		<g>
			<g>
				<polygon points="77,-144 187.4,-144 187.4,-143.8 213.9,-143.8 230.5,-127.2 124.5,-127.2 187.4,-64.4 187.4,-33.6 				"/>
				<path d="M186.9-143.5v0.2h1h25.8l15.6,15.6h-41.4h-62.1h-2.4l1.7,1.7l61.7,61.7l0.1,0.1v29.4l-92.6-92.6L84-137.6l-5.9-5.9h12.7
					H186.9 M187.9-144.5h-97H75.8l7.6,7.6l10.2,10.2l94.4,94.4v-33.1l-0.4,0.4l-61.7-61.7h62.1h43.8l-17.6-17.6h-26.3V-144.5
					L187.9-144.5z"/>
			</g>
			<g>
				<polygon points="157.7,-102.3 141.2,-118.8 219.5,-118.8 235.7,-102.3 				"/>
				<path d="M219.2-118.3l15.3,15.6H158l-15.6-15.6H219.2 M219.7-119.3H140l17.6,17.6h79.4L219.7-119.3L219.7-119.3z"/>
			</g>
		</g>
	</g>
</g>
<g id="Layer_13" class="st0">
	<polyline class="st25" points="35.7,120.6 62.7,98.2 62.7,50.8 111.1,50.8 136.6,30.3 62.7,30.3 62.7,-9.5 112.4,-9.5 141.3,-33.3 
		35.7,-33.3 	"/>
	<polyline class="st26" points="144.3,-9.5 192.1,-9.5 220.9,-33.3 144.3,-33.3 	"/>
	<polyline class="st26" points="144.3,48.9 184.7,48.9 211.7,28.8 144.3,28.8 	"/>
	<g class="st2">
		<polygon class="st27" points="124.1,-15.3 116.9,-8.7 116.9,27.5 141.6,27.5 141.6,-29.9 		"/>
		<polygon class="st27" points="116.9,51 116.9,98.1 141.6,119.4 141.6,29 		"/>
		<path class="st27" d="M146.8-31.3"/>
	</g>
	<g class="st2">
		<path class="st28" d="M35-41.7v-27.4h19.4v5.1H40.9v5.8h13.3v5.1H40.9v11.4H35z"/>
		<path class="st28" d="M58.5-41.7v-27.4h5.8v27.4H58.5z"/>
		<path class="st28" d="M76.1-41.7V-64h-8v-5.1h21.9v5.1h-8v22.3H76.1z"/>
		<path class="st28" d="M94.3-41.7v-27.4h17.4v2.1h-15v10.1h14.7v2.1H96.7v13H94.3z"/>
		<path class="st28" d="M135.1-41.7l-2.7-6.7h-14.5l-2.7,6.7h-2.7l11.2-27.4h2.9l11.2,27.4H135.1z M125.1-66.6l-6.5,16h12.9
			L125.1-66.6z"/>
		<path class="st28" d="M157.9-41.7l-7.7-11.3h-6v11.3h-2.3v-27.4H152c4.7,0,8.3,3,8.3,8c0,5-3.5,7.7-7.6,7.9l7.9,11.5H157.9z
			 M157.9-61.1c0-3.4-2.4-5.9-6.1-5.9h-7.7v11.8h7.7C155.5-55.2,157.9-57.7,157.9-61.1z"/>
		<path class="st28" d="M166.2-41.7v-27.4h2.3v27.4H166.2z"/>
		<path class="st28" d="M195.2-41.7l-2.7-6.7H178l-2.7,6.7h-2.7l11.2-27.4h2.9l11.2,27.4H195.2z M185.3-66.6l-6.5,16h12.9
			L185.3-66.6z"/>
		<path class="st28" d="M199.7-45.6l1.5-1.8c1.8,2,4.6,4,8.6,4c5.6,0,7.2-3.1,7.2-5.5c0-8.1-16.4-3.9-16.4-13.4c0-4.5,4-7.3,9-7.3
			c4.1,0,7.2,1.4,9.3,3.9l-1.6,1.7c-2-2.4-4.8-3.5-7.8-3.5c-3.7,0-6.4,2.1-6.4,5.1c0,7,16.4,3.2,16.4,13.4c0,3.5-2.3,7.8-9.7,7.8
			C205.2-41.2,201.8-43.1,199.7-45.6z"/>
	</g>
	<text transform="matrix(1 0 0 1 34.2069 -80.8168)" style="font-family:'ProximaNova-Regular'; font-size:24.8883px;">Personal Training</text>
</g>
<g id="Layer_14" class="st0">
	<polygon class="st29" points="241.3,46 3.7,46 25.4,2 263,2 	"/>
	<text transform="matrix(1 0 0 1 103.6667 30)" class="st30 st10 st31">Home</text>
</g>
<g id="Layer_14_copy" class="st0">
	<polygon class="st29" points="241.3,46 3.7,46 25.4,2 263,2 	"/>
	<text transform="matrix(1 0 0 1 94.6667 30)" class="st30 st10 st31">Services</text>
</g>
<g id="Layer_14_copy_2" class="st0">
	<polygon class="st29" points="241.3,46 3.7,46 25.4,2 263,2 	"/>
	<text transform="matrix(1 0 0 1 73.6667 30)" class="st30 st10 st31">Testimonials</text>
</g>
<g id="Layer_14_copy_3">
	<polygon class="st32" points="241.3,46 3.7,46 25.4,2 263,2 	"/>
	<text transform="matrix(1 0 0 1 84.6667 30)" class="st33 st10 st31">About Me</text>
</g>
<g id="Layer_14_copy_4" class="st0">
	<polygon class="st29" points="241.3,46 3.7,46 25.4,2 263,2 	"/>
	<text transform="matrix(1 0 0 1 79.6667 30)" class="st30 st10 st31">Blog Posts</text>
</g>
<g id="Layer_15" class="st0">
</g>
</svg>
