<?xml version="1.0" encoding="utf-8"?>
<!-- Generator: Adobe Illustrator 19.2.0, SVG Export Plug-In . SVG Version: 6.00 Build 0)  -->
<svg version="1.1" xmlns="http://www.w3.org/2000/svg" xmlns:xlink="http://www.w3.org/1999/xlink" x="0px" y="0px"
	 viewBox="0 0 265.8 48" style="enable-background:new 0 0 265.8 48;" xml:space="preserve">
<style type="text/css">
	.st0{display:none;}
	.st1{display:inline;fill:none;}
	.st2{display:inline;}
	.st3{font-family:'FuturaStd-ExtraBold';}
	.st4{font-size:60px;}
	.st5{font-family:'FuturaStd-Heavy';}
	.st6{font-size:24px;}
	.st7{font-family:'FuturaStd-Light';}
	.st8{font-size:18px;}
	.st9{font-size:35px;}
	.st10{font-family:'ProximaNova-Semibold';}
	.st11{fill:#FFFFFF;}
	.st12{display:inline;fill:#FFFFFF;}
	.st13{display:inline;fill:#A7A9AC;}
	.st14{fill:#58595B;}
	.st15{font-family:'Archer-Bold';}
	.st16{font-size:26px;}
	.st17{font-family:'ARDESTINE';}
	.st18{display:inline;fill:none;stroke:#FFFFFF;stroke-width:3;stroke-miterlimit:10;}
	.st19{stroke:#000000;stroke-miterlimit:10;}
	.st20{fill:#FFFFFF;stroke:#FFFFFF;stroke-miterlimit:10;}
	.st21{display:inline;fill:#FFFFFF;stroke:#FFFFFF;stroke-miterlimit:10;}
	.st22{display:inline;stroke:#000000;stroke-miterlimit:10;}
	.st23{fill:#FFFFFF;stroke:#FFFFFF;stroke-width:3;stroke-miterlimit:10;}
	.st24{font-family:'CenturyGothic-Bold';}
	.st25{display:inline;fill:#006E44;}
	.st26{display:inline;fill:#18AE6F;}
	.st27{fill:#088C58;}
	.st28{fill:#18AE6F;}
	.st29{display:inline;stroke:#18AE6F;stroke-width:4;stroke-miterlimit:10;}
	.st30{display:inline;fill:#F1F2F2;}
	.st31{font-size:21px;}
	.st32{stroke:#18AE6F;stroke-width:4;stroke-miterlimit:10;}
	.st33{fill:#F1F2F2;}
</style>
<g id="Layer_1" class="st0">
	<rect x="29.3" y="-28.6" class="st1" width="42.8" height="52.6"/>
	<text transform="matrix(1 0 0 1 29.2859 20.0758)" class="st2 st3 st4">F</text>
	<rect x="-289.5" y="-152.3" class="st1" width="146.8" height="27.7"/>
	<text transform="matrix(1 0 0 1 -289.5162 -132.526)" class="st2 st6" style="font-family:'FuturaStd-Book';">Ashley Farias</text>
	<rect x="-289.5" y="-119.4" class="st1" width="146.8" height="27.7"/>
	<text transform="matrix(1 0 0 1 -289.5162 -99.6255)" class="st2 st6" style="font-family:'FuturaStd-BookOblique';">Ashley Farias</text>
	<rect x="-292.5" y="-86.5" class="st1" width="190" height="25.1"/>
	<text transform="matrix(1 0 0 1 -292.5465 -66.6055)" class="st2 st6" style="font-family:'FuturaStd-Bold';">Ashley Farias</text>
	<rect x="-292.5" y="-52.8" class="st1" width="190" height="25.1"/>
	<text transform="matrix(1 0 0 1 -292.5465 -34.6101)" class="st2 st6" style="font-family:'GloriolaStd-Light';">Ashley Farias</text>
	<rect x="-292.5" y="-23.3" class="st1" width="190" height="25.1"/>
	<text transform="matrix(1 0 0 1 -292.5465 -5.4894)" class="st2 st6" style="font-family:'Hermes-Regular';">Ashley Farias</text>
	<rect x="-292.5" y="8.7" class="st1" width="190" height="25.1"/>
	<text transform="matrix(1 0 0 1 -292.5465 25.9451)" class="st2 st6" style="font-family:'MundoSans';">Ashley Farias</text>
	<rect x="-292.5" y="38.2" class="st1" width="190" height="25.1"/>
	<text transform="matrix(1 0 0 1 -292.5465 55.022)" class="st2 st6" style="font-family:'MuseoSlab-300';">Ashley Farias</text>
	<rect x="-292.5" y="65.4" class="st1" width="190" height="25.1"/>
	<text transform="matrix(1 0 0 1 -292.5465 81.431)" class="st2 st6" style="font-family:'ProximaNova-Regular';">Ashley Farias</text>
	<rect x="-292.5" y="116.1" class="st1" width="190" height="25.1"/>
	<text transform="matrix(1 0 0 1 -292.5465 135.8318)" class="st2" style="font-family:'Averoster'; font-size:40px;">Ashley Farias</text>
	<rect x="-353" y="94" class="st1" width="223.4" height="18.6"/>
	<text transform="matrix(1 0 0 1 -352.9794 111.9951)" class="st2 st6" style="font-family:'BigJohn';">Ashley Farias</text>
	<rect x="-82.6" y="-152.3" class="st1" width="232.5" height="37.7"/>
	<text transform="matrix(1 0 0 1 -82.5659 -125.6459)" class="st2"><tspan x="0" y="0" style="font-family:'ProximaNova-Thin'; font-size:40px;">Fit</tspan><tspan x="52" y="0" style="font-family:'ProximaNova-Black'; font-size:40px;">Farias</tspan></text>
	<rect x="139.2" y="-148.2" class="st1" width="232.5" height="37.7"/>
	<text transform="matrix(1 0 0 1 139.2138 -121.5334)" class="st2"><tspan x="0" y="0" style="font-family:'ProximaNova-Light'; font-size:40px;">Fit</tspan><tspan x="53.2" y="0" style="font-family:'ProximaNova-Black'; font-size:40px;">Farias</tspan></text>
	<rect x="-81.3" y="-115.9" class="st1" width="232.5" height="37.7"/>
	<text transform="matrix(1 0 0 1 -81.2672 -82.9404)" class="st2"><tspan x="0" y="0" class="st3" style="font-size:40px;">Fit</tspan><tspan x="64" y="0" class="st7" style="font-size:40px;">Farias</tspan></text>
	<rect x="-84.3" y="-24.7" class="st1" width="109.3" height="52.6"/>
	<text transform="matrix(1 0 0 1 -84.2537 23.9542)" class="st2 st3 st4">F</text>
	<rect x="-83.9" y="-69.7" class="st1" width="232.5" height="37.7"/>
	<text transform="matrix(1 0 0 1 -83.8646 -36.6633)" class="st2"><tspan x="0" y="0" class="st3" style="font-size:40px;">Fit</tspan><tspan x="64" y="0" style="font-family:'ProximaNova-Light'; font-size:45px;">F</tspan><tspan x="88.4" y="0" class="st7" style="font-size:40px;">arias</tspan></text>
	<rect x="-48.1" y="-23.7" class="st1" width="80.1" height="57.6"/>
	<text transform="matrix(1 0 0 1 -48.0758 -3.3528)" class="st2"><tspan x="0" y="0" class="st5 st6">it</tspan><tspan x="0" y="27" class="st7 st6">farias</tspan></text>
	<rect x="51.5" y="4.2" class="st1" width="29.8" height="22.8"/>
	<text transform="matrix(1 0 0 1 51.5433 19.4286)" class="st2 st5 st8">it</text>
	<rect x="63.2" y="-8.9" class="st1" width="116.8" height="36.9"/>
	<text transform="matrix(1 0 0 1.1 63.2132 19.9491)" class="st2 st7 st9">farias</text>
	<rect x="-81.3" y="38.2" class="st1" width="299.5" height="27.3"/>
	<text transform="matrix(1 0 0 1 -81.2673 61.4952)" class="st2 st10 st9">Farias Fitness</text>
	<rect x="-89.8" y="106.4" class="st1" width="30.3" height="27.3"/>
	<text transform="matrix(1 0 0 1 -89.7863 129.7452)" class="st2 st10 st9">F</text>
	<rect x="-83.3" y="71.8" class="st1" width="299.5" height="31.5"/>
	<text transform="matrix(1 0 0 1 -83.2863 96.2527)" class="st2 st9" style="font-family:'MuseoSans-100';">Farias Fitness</text>
	<g class="st2">
		<rect x="116.5" y="-109" style="fill:none;" width="87" height="63.3"/>
		<text transform="matrix(1 0 0 1 116.5 -49.2412)" style="font-family:'FuturaStd-Bold'; font-size:72px;">A</text>
		<polygon style="fill:none;" points="131.4,-67.8 188.8,-67.8 182.8,-33.7 125.4,-33.7 		"/>
		
			<text transform="matrix(0.9848 0 -0.1736 0.9848 129.067 -54.6839)" class="st11" style="font-family:'ProximaNova-LightIt'; font-size:20px;">F</text>
		<polygon style="fill:none;" points="225.1,-62.8 143.3,-62.8 144.2,-67.8 226,-67.8 		"/>
		
			<text transform="matrix(0.9848 0 -0.1736 0.9848 143.5474 -64.4855)" class="st11" style="font-family:'ProximaNova-LightIt'; font-size:5.0771px;">arias</text>
		<polygon style="fill:none;" points="223.1,-58.3 141.2,-58.3 142.1,-63.3 224,-63.3 		"/>
		
			<text transform="matrix(0.9848 0 -0.1736 0.9848 141.5039 -59.9856)" class="st11" style="font-family:'ProximaNova-LightIt'; font-size:5.0771px;">itness</text>
	</g>
	<g class="st2">
		<g>
			<path d="M226.5-25.7l-6.7,16.9H193l37.4-97.1h27.6l36.6,97.1h-26.9l-6.3-16.9H226.5z M244.1-75.9h-0.3L233.4-45h21L244.1-75.9z"
				/>
		</g>
		<g>
			<path class="st11" d="M217-18.6l9.3-23.5h14.9l-0.7,1.8h-12.9l-3.4,8.7h12.6l-0.7,1.8h-12.6L219-18.6H217z"/>
		</g>
		<g>
			<path class="st11" d="M246.5-36.1l0-1.5h-3.2l-1.2,1.5h-0.6l4.8-6h0.6l0.1,6H246.5z M246.5-41.5l-2.8,3.5h2.8L246.5-41.5z"/>
			<path class="st11" d="M251.5-36.1l-0.7-2.5h-1.4l-1,2.5h-0.5l2.4-6h2.1c0.8,0,1.5,0.5,1.4,1.5c-0.2,1.1-1.1,1.9-2.4,2l0.7,2.5
				H251.5z M251.3-39c1,0,1.7-0.7,1.9-1.5c0.1-0.6-0.4-1.1-0.9-1.1h-1.6l-1,2.6H251.3L251.3-39z"/>
			<path class="st11" d="M253.2-36.1l2.4-6h0.5l-2.4,6H253.2z"/>
			<path class="st11" d="M259.6-36.1l0-1.5h-3.2l-1.2,1.5h-0.6l4.8-6h0.6l0.1,6H259.6z M259.6-41.5l-2.8,3.5h2.8L259.6-41.5z"/>
			<path class="st11" d="M261-37l0.4-0.4c0.3,0.6,0.9,1,1.8,1c1.1,0,1.6-0.7,1.7-1.3c0.2-1.3-2.8-1.1-2.5-2.7
				c0.2-0.9,1.2-1.7,2.3-1.7c0.9,0,1.6,0.4,1.9,0.9l-0.5,0.4c-0.3-0.6-0.9-0.8-1.6-0.8c-0.8,0-1.5,0.6-1.6,1.1
				c-0.2,1.2,2.8,1,2.5,2.7c-0.2,0.9-1,1.8-2.4,1.8C262.1-36,261.2-36.4,261-37z"/>
		</g>
		<g>
			<path class="st11" d="M238.5-28l2.4-6h0.5l-2.4,6H238.5z"/>
			<path class="st11" d="M242-28l2.2-5.5h-2l0.2-0.5h4.4l-0.2,0.5h-2l-2.2,5.5H242z"/>
			<path class="st11" d="M249.8-28l-1.7-5.2L246-28h-0.5l2.4-6h0.5l1.7,5.1l2-5.1h0.5l-2.4,6H249.8z"/>
			<path class="st11" d="M251.8-28l2.4-6h3.8l-0.2,0.5h-3.3l-0.9,2.2h3.2l-0.2,0.5h-3.2l-0.9,2.4h3.3l-0.2,0.5H251.8z"/>
			<path class="st11" d="M256.9-29l0.4-0.4c0.3,0.6,0.9,1,1.8,1c1.1,0,1.6-0.7,1.7-1.3c0.2-1.3-2.8-1.1-2.5-2.7
				c0.2-0.9,1.2-1.7,2.3-1.7c0.9,0,1.6,0.4,1.9,0.9l-0.4,0.4c-0.3-0.6-0.9-0.8-1.6-0.8c-0.8,0-1.5,0.6-1.6,1.1
				c-0.2,1.2,2.8,1,2.5,2.7c-0.2,0.9-1,1.8-2.4,1.8C258-27.9,257.2-28.4,256.9-29z"/>
			<path class="st11" d="M262.1-29l0.4-0.4c0.3,0.6,0.9,1,1.8,1c1.1,0,1.6-0.7,1.7-1.3c0.2-1.3-2.8-1.1-2.5-2.7
				c0.2-0.9,1.2-1.7,2.3-1.7c0.9,0,1.6,0.4,1.9,0.9l-0.4,0.4c-0.3-0.6-0.9-0.8-1.6-0.8c-0.8,0-1.5,0.6-1.6,1.1
				c-0.2,1.2,2.8,1,2.5,2.7c-0.2,0.9-1,1.8-2.4,1.8C263.2-27.9,262.4-28.4,262.1-29z"/>
		</g>
	</g>
	<polygon class="st1" points="36.7,193.3 -95,193.3 -78.1,151.6 53.6,151.6 	"/>
	
		<text transform="matrix(0.9272 0 -0.3746 0.9272 -91.0719 183.5704)" class="st2" style="font-family:'ProximaNova-Thin'; font-size:51.7697px;">A</text>
	<rect x="-63.6" y="151.6" class="st1" width="71.8" height="33.5"/>
	<text transform="matrix(1 0 0 1 -63.5535 183.5702)" class="st2" style="font-family:'ProximaNova-Thin'; font-size:48px;">F</text>
	
		<rect x="-88.7" y="128.1" transform="matrix(0.7712 -0.6366 0.6366 0.7712 -102.239 -24.0302)" class="st12" width="8.3" height="4.3"/>
	
		<rect x="-77" y="108.3" transform="matrix(0.7712 -0.6366 0.6366 0.7712 -86.9959 -21.1073)" class="st12" width="8.3" height="4.3"/>
	
		<rect x="-77" y="116.9" transform="matrix(0.7712 -0.6366 0.6366 0.7712 -92.4397 -19.1057)" class="st12" width="8.3" height="4.3"/>
	<polygon class="st2" points="-23.6,144.2 -23.6,131 -11.1,131 -2.5,123.8 -23.6,123.8 -23.6,111.9 -8.7,111.9 -0.1,104.8 
		-31.8,104.8 -31.8,150.9 	"/>
	<polygon class="st2" points="-2.8,144.2 -2.8,131 9.7,131 18.4,123.8 -2.8,123.8 -2.8,111.9 12.1,111.9 20.8,104.8 -10.9,104.8 
		-10.9,150.9 	"/>
	<polygon class="st13" points="240.7,96.7 240.7,71.8 266,71.8 279.3,61.1 240.7,61.1 240.7,40.3 266.7,40.3 281.7,27.9 226.5,27.9 
		226.5,108.3 	"/>
	<polyline class="st2" points="283.3,40.3 308.3,40.3 323.4,27.9 283.3,27.9 	"/>
	<g class="st2">
		<polygon class="st14" points="272.8,37.3 269,40.8 269,59.7 281.9,59.7 281.9,29.7 		"/>
		<polygon class="st14" points="269,71.9 269,96.6 281.9,107.7 281.9,60.5 		"/>
		<path class="st11" d="M284.6,28.9"/>
	</g>
	<rect x="10.2" y="127.2" class="st1" width="61" height="39.3"/>
	<text transform="matrix(1 0 0 1 10.2137 154.1807)" class="st2" style="font-family:'BigJohn'; font-size:36px;">AF</text>
	<rect x="226.1" y="112.8" class="st1" width="93" height="14.2"/>
	<text transform="matrix(1 0 0 1 226.0685 122.1774)" class="st2"><tspan x="0" y="0" style="font-family:'ProximaNova-Bold'; font-size:14px;">Fit</tspan><tspan x="20" y="0" style="font-family:'ProximaNova-Light'; font-size:14px;">Farias</tspan></text>
</g>
<g id="Layer_2" class="st0">
	<text transform="matrix(1 0 0 1 -78.7783 -141.6756)" class="st2 st6" style="font-family:'ROSKA';">Fit Farias</text>
	<text transform="matrix(1 0 0 1 -82.7084 -111.5446)" class="st2 st6" style="font-family:'RotisSansSerifStd';">FIT FARIAS</text>
	<text transform="matrix(1 0 0 1 -82.7084 -79.6669)" class="st2 st6" style="font-family:'Vani';">FIT FARIAS</text>
	<text transform="matrix(1 0 0 1 -83.1451 -53.0293)" class="st2 st16" style="font-family:'Rockwell-Bold';">FIT FARIAS</text>
	<text transform="matrix(1 0 0 1 -83.5818 -30.3219)" class="st2 st6" style="font-family:'Memphis-Light';">FIT FARIAS</text>
	<text transform="matrix(1 0 0 1 -83.1451 -8.0512)" class="st2 st6" style="font-family:'Elephant-Regular';">FIT FARIAS</text>
	<text transform="matrix(1 0 0 1 -84.0185 14.6563)" class="st2 st15 st16">FIT FARIAS</text>
	<text transform="matrix(1 0 0 1 -85.7652 37.8004)" class="st2 st6" style="font-family:'Averoster';">FIT FARIAS</text>
	<text transform="matrix(1 0 0 1 -85.7652 60.5078)" class="st2 st17 st6">FIT FARIAS</text>
	<rect x="-81.4" y="82.8" class="st1" width="194.3" height="62.9"/>
	<text transform="matrix(1 0 0 1 -81.3984 100.1055)" class="st2 st6" style="font-family:'UniversLTStd-Black';">FIT FARIAS</text>
	<line class="st18" x1="74.5" y1="95.1" x2="-83.1" y2="95.1"/>
</g>
<g id="_x31_" class="st0">
	<polyline class="st13" points="31.5,73.8 59.1,51 59.1,2.6 108.5,2.6 134.6,-18.3 59.1,-18.3 59.1,-58.9 109.9,-58.9 139.4,-83.3 
		31.5,-83.3 	"/>
	<polyline class="st2" points="142.4,-58.9 191.2,-58.9 220.6,-83.3 142.4,-83.3 	"/>
	<g class="st2">
		<polygon class="st14" points="121.8,-64.9 114.4,-58.1 114.4,-21.1 139.6,-21.1 139.6,-79.8 		"/>
		<polygon class="st14" points="114.4,2.8 114.4,50.9 139.6,72.7 139.6,-19.6 		"/>
		<path class="st11" d="M145-81.2"/>
	</g>
	<rect x="30.6" y="82.6" class="st1" width="181.6" height="46.9"/>
	<text transform="matrix(1 0 0 1 30.6284 107.3623)" class="st2"><tspan x="0" y="0" style="font-family:'ProximaNova-Bold'; font-size:37.057px;">Fit</tspan><tspan x="52.9" y="0" style="font-family:'ProximaNova-Light'; font-size:37.057px;">FARIAS</tspan></text>
</g>
<g id="_x32_" class="st0">
	<g class="st2">
		<g>
			<path d="M91.1,50.3L78.6,81.7h-50L98.3-99.4h51.4L218,81.7h-50.2L156,50.3H91.1z M124-43.4h-0.5l-19.5,57.6h39.2L124-43.4z"/>
		</g>
		<g>
			<path class="st11" d="M73.5,63.5l17.4-43.8h27.8l-1.3,3.4H93.3l-6.4,16.2h23.5l-1.4,3.4H85.5l-8.3,20.8H73.5z"/>
		</g>
		<g>
			<path class="st11" d="M128.5,30.8l0-2.7h-5.9l-2.2,2.7h-1.2l9-11.1h1.2l0.1,11.1H128.5z M128.5,20.7l-5.2,6.5h5.3L128.5,20.7z"/>
			<path class="st11" d="M137.8,30.8l-1.3-4.6H134l-1.8,4.6h-1l4.4-11.1h3.8c1.5,0,2.8,1,2.5,2.8c-0.4,2.1-2.1,3.6-4.5,3.7l1.4,4.7
				H137.8z M137.4,25.3c2,0,3.2-1.3,3.5-2.8c0.2-1.2-0.7-2-1.7-2h-3l-1.9,4.8H137.4L137.4,25.3z"/>
			<path class="st11" d="M141.1,30.8l4.4-11.1h1l-4.4,11.1H141.1z"/>
			<path class="st11" d="M152.9,30.8l0-2.7H147l-2.2,2.7h-1.2l9-11.1h1.2l0.1,11.1H152.9z M152.9,20.7l-5.2,6.5h5.3L152.9,20.7z"/>
			<path class="st11" d="M155.5,29l0.8-0.7c0.6,1.1,1.7,1.8,3.3,1.8c2,0,3-1.3,3.2-2.4c0.4-2.5-5.2-2-4.7-5.1
				c0.3-1.7,2.2-3.1,4.3-3.1c1.7,0,3,0.7,3.5,1.7l-0.8,0.7c-0.5-1.1-1.7-1.5-2.9-1.5c-1.5,0-2.8,1-3,2.1c-0.4,2.2,5.2,1.9,4.7,5.1
				c-0.3,1.7-2,3.4-4.5,3.4C157.5,31,156,30.2,155.5,29z"/>
		</g>
		<g>
			<path class="st11" d="M113.6,45.8l4.4-11.1h1l-4.4,11.1H113.6z"/>
			<path class="st11" d="M120.1,45.8l4.1-10.3h-3.6l0.3-0.9h8.2l-0.3,0.9h-3.6l-4.1,10.3H120.1z"/>
			<path class="st11" d="M134.7,45.8l-3.2-9.6l-3.8,9.6h-1l4.4-11.1h1l3.2,9.5l3.8-9.5h1l-4.4,11.1H134.7z"/>
			<path class="st11" d="M138.4,45.8l4.4-11.1h7.1l-0.3,0.9h-6.1l-1.6,4.1h6l-0.4,0.9h-6l-1.8,4.4h6.1l-0.3,0.9H138.4z"/>
			<path class="st11" d="M148,44.1l0.8-0.7c0.6,1.1,1.7,1.8,3.3,1.8c2,0,3-1.3,3.2-2.4c0.4-2.4-5.2-2-4.7-5.1
				c0.3-1.7,2.2-3.1,4.3-3.1c1.7,0,3,0.7,3.5,1.7l-0.8,0.7c-0.5-1.1-1.7-1.5-2.9-1.5c-1.5,0-2.8,1-3,2.1c-0.4,2.2,5.2,1.9,4.7,5.1
				c-0.3,1.7-2,3.4-4.5,3.4C150,46,148.5,45.2,148,44.1z"/>
			<path class="st11" d="M157.7,44.1l0.8-0.7c0.6,1.1,1.7,1.8,3.3,1.8c2,0,3-1.3,3.2-2.4c0.4-2.4-5.2-2-4.7-5.1
				c0.3-1.7,2.2-3.1,4.3-3.1c1.7,0,3,0.7,3.5,1.7l-0.8,0.7c-0.5-1.1-1.7-1.5-2.9-1.5c-1.5,0-2.8,1-3,2.1c-0.4,2.2,5.2,1.9,4.7,5.1
				c-0.3,1.7-2,3.4-4.5,3.4C159.7,46,158.2,45.2,157.7,44.1z"/>
		</g>
	</g>
</g>
<g id="_x33_" class="st0">
	<g class="st2">
		<polygon class="st19" points="10.7,-48 10.7,-131 -72.3,-48 		"/>
		<polygon class="st20" points="-3.4,-62.5 -3.4,-96.1 -37,-62.5 		"/>
		<polygon class="st19" points="18,-48.2 101,-131.2 18,-131.2 		"/>
	</g>
	<rect x="37.9" y="-115.8" class="st21" width="49" height="9"/>
	<rect x="37.9" y="-92.5" class="st21" width="49" height="28.2"/>
</g>
<g id="_x34_" class="st0">
	<g class="st2">
		<polygon class="st19" points="68.2,73.1 68.2,-71 -75.9,73.1 		"/>
		<polygon class="st20" points="38.5,43.1 38.5,2.7 -1.9,43.1 		"/>
		<polygon class="st19" points="80.8,72.7 224.9,-71.4 80.8,-71.4 		"/>
	</g>
	<rect x="115.5" y="-32.4" class="st21" width="85.1" height="15.7"/>
</g>
<g id="_x35_" class="st0">
	<rect x="185" y="78.2" class="st1" width="134.3" height="46.4"/>
	<text transform="matrix(1 0 0 1 185.0176 111.0957)" class="st2" style="font-family:'AvenirNext-Heavy'; font-size:43.4684px;">IT</text>
	<rect x="173.8" y="142.7" class="st1" width="153" height="53.1"/>
	<text transform="matrix(1 0 0 1 173.8037 175.5322)" class="st2" style="font-family:'AvenirNext-Heavy'; font-size:43.4684px;"> ARI   S</text>
	<rect x="182.8" y="142.9" class="st21" width="36" height="39.5"/>
	<rect x="266.9" y="141" class="st21" width="30.9" height="39.5"/>
	<g class="st2">
		<polygon class="st19" points="108,153.3 199.1,62.2 108,62.2 		"/>
	</g>
	<rect x="129.9" y="78.1" class="st21" width="53.8" height="9.9"/>
	<rect x="129.9" y="104.6" class="st21" width="53.8" height="31"/>
	<g class="st2">
		<polygon class="st19" points="139.2,205 230.3,113.8 139.2,113.8 		"/>
	</g>
	<rect x="161.1" y="130.8" class="st21" width="53.8" height="9.9"/>
	<rect x="161.1" y="156.3" class="st21" width="53.8" height="31"/>
	<polygon class="st22" points="217.5,175.4 217.5,145.6 187.7,175.4 	"/>
	<polygon class="st22" points="294.8,175.4 294.8,145.6 265,175.4 	"/>
</g>
<g id="_x36_" class="st0">
	<g class="st2">
		<polygon class="st19" points="-57.8,24.4 95.9,-129.3 -57.8,-129.3 		"/>
	</g>
	<rect x="-20.8" y="-87.6" class="st21" width="90.7" height="16.7"/>
	<g class="st2">
		<polygon class="st19" points="8.6,130.7 162.3,-23 8.6,-23 		"/>
	</g>
	<rect x="45.5" y="18.7" class="st21" width="90.7" height="16.7"/>
	<rect x="52.6" y="-78.6" class="st1" width="64.8" height="51.4"/>
	<text transform="matrix(1 0 0 1 52.5566 -34.4331)" class="st2 st24 st4">IT</text>
	<rect x="74.1" y="57.3" class="st1" width="219.1" height="51.4"/>
	<text transform="matrix(1 0 0 1 74.1416 101.4404)" class="st2 st24 st4">ARIAS</text>
</g>
<g id="_x37_" class="st0">
	<g class="st2">
		<polygon class="st19" points="144.7,-90.6 219.7,-90.6 261.4,-132.3 107.7,-132.3 107.7,-5 133.3,-5 107.7,20.6 107.7,21.4 
			203,-73.9 144.7,-73.9 		"/>
		<polygon class="st20" points="203,-73.9 235.4,-73.9 235.4,-90.6 219.7,-90.6 		"/>
		<polygon class="st19" points="-20.4,-5 -20.4,148.7 74.9,53.4 16.5,53.4 16.5,36.7 91.6,36.7 107.7,20.6 107.7,-5 		"/>
		<polygon class="st23" points="107.7,-5 107.7,20.6 133.3,-5 		"/>
		<polygon class="st20" points="107.2,53.4 107.2,36.7 91.6,36.7 74.9,53.4 		"/>
	</g>
	<rect x="110.6" y="1.4" class="st1" width="64.8" height="51.4"/>
	<text transform="matrix(1 0 0 1 110.5566 45.5669)" class="st2 st24 st4">IT</text>
	<rect x="74.1" y="57.3" class="st1" width="219.1" height="51.4"/>
	<text transform="matrix(1 0 0 1 74.1416 101.4404)" class="st2 st24 st4">ARIAS</text>
</g>
<g id="_x38_" class="st0">
	<g class="st2">
		<polygon class="st19" points="0.6,-155.9 -76.7,-78.6 78,-78.6 		"/>
		<polygon class="st19" points="78.7,-74.5 -75.9,-74.5 1.4,2.9 		"/>
	</g>
	<rect x="1.6" y="-57.4" class="st21" width="64.6" height="11.9"/>
	<rect x="1.6" y="-26.7" class="st21" width="45.1" height="37.2"/>
	<polygon class="st21" points="-0.2,-127.6 -31.5,-96.3 31.1,-96.3 	"/>
	<g class="st2">
		<polygon class="st19" points="231.4,12.4 155.2,88.7 307.6,88.7 		"/>
		<polygon class="st19" points="308.4,92.7 155.9,92.7 232.1,169 		"/>
	</g>
	<polygon class="st21" points="296,121.3 210.7,121.3 203.2,109.6 296,109.6 	"/>
	<polygon class="st21" points="296,171.9 232.4,171.9 216.4,135.2 296,135.2 	"/>
	<g class="st2">
		<polygon class="st20" points="275.4,90 250.8,69 212.1,69 187.5,90 		"/>
	</g>
</g>
<g id="_x39_" class="st0">
	<g class="st2">
		<g>
			<g>
				<polygon points="-85.4,30.2 19,30.2 19,30.4 44.2,30.4 59.8,46 -40.5,46 19,105.5 19,134.6 				"/>
				<path d="M18.5,30.7v0.2h1H44l14.6,14.6H19.5h-58.8h-2.4l1.7,1.7l58.4,58.4l0.1,0.1v27.7l-87.6-87.6l-9.6-9.6l-5.5-5.5h11.9H18.5
					 M19.5,29.7h-91.8h-14.3l7.2,7.2l9.6,9.6l89.4,89.4v-31.3l-0.4,0.4l-58.4-58.4h58.8H61L44.4,29.9H19.5V29.7L19.5,29.7z"/>
			</g>
			<g>
				<polygon points="-9,69.6 -24.6,54 49.4,54 64.8,69.6 				"/>
				<path d="M49.2,54.5l14.4,14.6H-8.8l-14.6-14.6H49.2 M49.6,53.5h-75.5l16.6,16.6h75.1L49.6,53.5L49.6,53.5z"/>
			</g>
		</g>
	</g>
	<g class="st2">
		<g>
			<g>
				<polygon points="-23.5,92.6 80.9,92.6 80.9,92.8 106.1,92.8 121.7,108.4 21.4,108.4 80.9,168 80.9,197.1 				"/>
				<path d="M80.4,93.1v0.2h1h24.4l14.6,14.6H81.4H22.6h-2.4l1.7,1.7l58.4,58.4l0.1,0.1v27.7l-87.6-87.6l-9.6-9.6l-5.5-5.5h11.9
					H80.4 M81.4,92.1h-91.8h-14.3l7.2,7.2l9.6,9.6l89.4,89.4V167l-0.4,0.4l-58.4-58.4h58.8h41.5l-16.6-16.6H81.4V92.1L81.4,92.1z"/>
			</g>
			<g>
				<polygon points="52.9,132.1 37.3,116.5 111.3,116.5 126.7,132.1 				"/>
				<path d="M111.1,117l14.4,14.6H53.1L38.5,117H111.1 M111.5,116H36.1l16.6,16.6h75.1L111.5,116L111.5,116z"/>
			</g>
		</g>
	</g>
</g>
<g id="_x31_0" class="st0">
	<g class="st2">
		<g>
			<g>
				<polygon class="st11" points="186.2,-84.6 284.7,-84.6 284.7,-84.5 313.3,-84.5 322.8,-74.9 216.9,-74.9 284.7,-7.1 284.7,13.8 
									"/>
				<path d="M280.7-80.6v0.2h8h22.9l1.6,1.6h-24.5h-62.1h-19.3l13.7,13.7l59.8,59.8v9.6L200-76.6l-4.1-4.1H280.7 M288.7-88.6h-97
					h-15.1l7.6,7.6l10.2,10.2l94.4,94.4V-9.6l-0.4,0.4l-61.7-61.7h62.1h43.8l-17.6-17.6h-26.3V-88.6L288.7-88.6z"/>
			</g>
			<g>
				<polygon class="st11" points="260,-49.9 250.4,-59.5 318.8,-59.5 328.2,-49.9 				"/>
				<path d="M317.1-55.5l1.5,1.6h-57l-1.6-1.6H317.1 M320.5-63.5h-79.7l17.6,17.6h79.4L320.5-63.5L320.5-63.5z"/>
			</g>
		</g>
	</g>
	<g class="st2">
		<g>
			<g>
				<polygon points="77.1,-143.7 187.5,-143.7 187.5,-143.5 214,-143.5 230.6,-127 124.6,-127 187.5,-64.1 187.5,-33.3 				"/>
				<path d="M187-143.2v0.2h1h25.8l15.6,15.6H188h-62.1h-2.4l1.7,1.7l61.7,61.7l0.1,0.1v29.4l-92.6-92.6l-10.2-10.2l-5.9-5.9H91H187
					 M188-144.2H91H75.9l7.6,7.6l10.2,10.2L188-32.1v-33.1l-0.4,0.4l-61.7-61.7H188h43.8L214.2-144H188V-144.2L188-144.2z"/>
			</g>
			<g>
				<polygon points="157.8,-102 141.3,-118.6 219.5,-118.6 235.8,-102 				"/>
				<path d="M219.3-118.1l15.3,15.6H158l-15.6-15.6H219.3 M219.7-119.1h-79.7l17.6,17.6H237L219.7-119.1L219.7-119.1z"/>
			</g>
		</g>
	</g>
</g>
<g id="Layer_13" class="st0">
	<polyline class="st25" points="35.8,120.8 62.8,98.5 62.8,51 111.2,51 136.7,30.5 62.8,30.5 62.8,-9.2 112.5,-9.2 141.4,-33 
		35.8,-33 	"/>
	<polyline class="st26" points="144.3,-9.2 192.1,-9.2 221,-33 144.3,-33 	"/>
	<polyline class="st26" points="144.3,49.1 184.8,49.1 211.8,29 144.3,29 	"/>
	<g class="st2">
		<polygon class="st27" points="124.2,-15.1 117,-8.4 117,27.8 141.7,27.8 141.7,-29.7 		"/>
		<polygon class="st27" points="117,51.2 117,98.3 141.7,119.7 141.7,29.2 		"/>
		<path class="st27" d="M146.9-31.1"/>
	</g>
	<g class="st2">
		<path class="st28" d="M35.1-41.5v-27.4h19.4v5.1H41v5.8h13.3v5.1H41v11.4H35.1z"/>
		<path class="st28" d="M58.6-41.5v-27.4h5.8v27.4H58.6z"/>
		<path class="st28" d="M76.2-41.5v-22.3h-8v-5.1H90v5.1h-8v22.3H76.2z"/>
		<path class="st28" d="M94.4-41.5v-27.4h17.4v2.1h-15v10.1h14.7v2.1H96.8v13H94.4z"/>
		<path class="st28" d="M135.2-41.5l-2.7-6.7H118l-2.7,6.7h-2.7l11.2-27.4h2.9l11.2,27.4H135.2z M125.2-66.4l-6.5,16h12.9
			L125.2-66.4z"/>
		<path class="st28" d="M158-41.5l-7.7-11.3h-6v11.3h-2.3v-27.4h10.2c4.7,0,8.3,3,8.3,8c0,5-3.5,7.7-7.6,7.9l7.9,11.5H158z
			 M158-60.9c0-3.4-2.4-5.9-6.1-5.9h-7.7v11.8h7.7C155.6-54.9,158-57.4,158-60.9z"/>
		<path class="st28" d="M166.3-41.5v-27.4h2.3v27.4H166.3z"/>
		<path class="st28" d="M195.3-41.5l-2.7-6.7h-14.5l-2.7,6.7h-2.7l11.2-27.4h2.9L198-41.5H195.3z M185.3-66.4l-6.5,16h12.9
			L185.3-66.4z"/>
		<path class="st28" d="M199.8-45.3l1.5-1.8c1.8,2,4.6,4,8.6,4c5.6,0,7.2-3.1,7.2-5.5c0-8.1-16.4-3.9-16.4-13.4c0-4.5,4-7.3,9-7.3
			c4.1,0,7.2,1.4,9.3,3.9l-1.6,1.7c-2-2.4-4.8-3.5-7.8-3.5c-3.7,0-6.4,2.1-6.4,5.1c0,7,16.4,3.2,16.4,13.4c0,3.5-2.3,7.8-9.7,7.8
			C205.3-41,201.9-42.8,199.8-45.3z"/>
	</g>
	<text transform="matrix(1 0 0 1 34.2902 -80.5668)" style="font-family:'ProximaNova-Regular'; font-size:24.8883px;">Personal Training</text>
</g>
<g id="Layer_14" class="st0">
	<polygon class="st29" points="241.4,46.3 3.8,46.3 25.5,2.3 263.1,2.3 	"/>
	<text transform="matrix(1 0 0 1 103.75 30.25)" class="st30 st10 st31">Home</text>
</g>
<g id="Layer_14_copy" class="st0">
	<polygon class="st29" points="241.4,46.3 3.8,46.3 25.5,2.3 263.1,2.3 	"/>
	<text transform="matrix(1 0 0 1 94.75 30.25)" class="st30 st10 st31">Services</text>
</g>
<g id="Layer_14_copy_2" class="st0">
	<polygon class="st29" points="241.4,46.3 3.8,46.3 25.5,2.3 263.1,2.3 	"/>
	<text transform="matrix(1 0 0 1 73.75 30.25)" class="st30 st10 st31">Testimonials</text>
</g>
<g id="Layer_14_copy_3" class="st0">
	<polygon class="st29" points="241.4,46.3 3.8,46.3 25.5,2.3 263.1,2.3 	"/>
	<text transform="matrix(1 0 0 1 84.75 30.25)" class="st30 st10 st31">About Me</text>
</g>
<g id="Layer_14_copy_4">
	<polygon class="st32" points="241.4,46.3 3.8,46.3 25.5,2.3 263.1,2.3 	"/>
	<text transform="matrix(1 0 0 1 97.75 30.25)" class="st33 st10 st31">Contact</text>
</g>
<g id="Layer_15" class="st0">
</g>
</svg>
