<?xml version="1.0" encoding="utf-8"?>
<!-- Generator: Adobe Illustrator 19.2.0, SVG Export Plug-In . SVG Version: 6.00 Build 0)  -->
<svg version="1.1" id="Layer_1" xmlns="http://www.w3.org/2000/svg" xmlns:xlink="http://www.w3.org/1999/xlink" x="0px" y="0px"
	 viewBox="0 0 85.3 86.7" style="enable-background:new 0 0 85.3 86.7;" xml:space="preserve">
<style type="text/css">
	.st0{fill:#F1F2F2;stroke:#000000;stroke-width:5;stroke-miterlimit:10;}
	.st1{fill:none;stroke:#000000;stroke-width:6;stroke-miterlimit:10;}
	.st2{display:none;}
	.st3{display:inline;fill:#F1F2F2;stroke:#000000;stroke-width:5;stroke-miterlimit:10;}
	.st4{display:inline;stroke:#000000;stroke-width:4;stroke-linecap:round;stroke-linejoin:round;stroke-miterlimit:10;}
	.st5{display:inline;fill:none;stroke:#000000;stroke-width:5;stroke-linejoin:round;stroke-miterlimit:10;}
	.st6{display:inline;stroke:#E6E7E8;stroke-width:5;stroke-miterlimit:10;}
	.st7{display:inline;stroke:#E6E7E8;stroke-width:5;stroke-linejoin:round;stroke-miterlimit:10;}
</style>
<g>
	<path class="st0" d="M65.5,78.3H18.4c-6.6,0-12-5.4-12-12V19.2c0-6.6,5.4-12,12-12h47.1c6.6,0,12,5.4,12,12v47.1
		C77.5,72.9,72.1,78.3,65.5,78.3z"/>
	<circle class="st1" cx="42" cy="44.3" r="16.5"/>
	<circle cx="62.1" cy="21" r="5.9"/>
</g>
<g class="st2">
	<path class="st3" d="M64.2,183.6H17.1c-6.6,0-12-5.4-12-12v-47.1c0-6.6,5.4-12,12-12h47.1c6.6,0,12,5.4,12,12v47.1
		C76.2,178.2,70.8,183.6,64.2,183.6z"/>
	<polygon class="st4" points="30.5,133.6 30.5,161.3 58.5,147.4 	"/>
</g>
<g class="st2">
	<path class="st3" d="M179.9,76.6h-41.8c-8.1,0-14.7-6.6-14.7-14.7V20.2c0-3.8,1.5-7.4,3.9-10c2.7-2.9,6.5-4.7,10.7-4.7h41.8
		c8.1,0,14.7,6.6,14.7,14.7v41.8C194.6,70,188,76.6,179.9,76.6z"/>
	<polyline class="st5" points="194.1,14.9 159.1,44.3 124.1,13.6 	"/>
</g>
<g class="st2">
	<path class="st6" d="M179.9,186.6h-41.8c-8.1,0-14.7-6.6-14.7-14.7v-41.8c0-3.8,1.5-7.4,3.9-10c2.7-2.9,6.5-4.7,10.7-4.7h41.8
		c8.1,0,14.7,6.6,14.7,14.7V172C194.6,180,188,186.6,179.9,186.6z"/>
	<polyline class="st7" points="194.1,125 159.1,154.3 124.1,123.7 	"/>
</g>
</svg>
