<?xml version="1.0" encoding="utf-8"?>
<!-- Generator: Adobe Illustrator 19.2.0, SVG Export Plug-In . SVG Version: 6.00 Build 0)  -->
<svg version="1.1" xmlns="http://www.w3.org/2000/svg" xmlns:xlink="http://www.w3.org/1999/xlink" x="0px" y="0px"
	 viewBox="0 0 267.3 47.7" style="enable-background:new 0 0 267.3 47.7;" xml:space="preserve">
<style type="text/css">
	.st0{display:none;}
	.st1{display:inline;fill:none;}
	.st2{display:inline;}
	.st3{font-family:'FuturaStd-ExtraBold';}
	.st4{font-size:60px;}
	.st5{font-family:'FuturaStd-Heavy';}
	.st6{font-size:24px;}
	.st7{font-family:'FuturaStd-Light';}
	.st8{font-size:18px;}
	.st9{font-size:35px;}
	.st10{font-family:'ProximaNova-Semibold';}
	.st11{fill:#FFFFFF;}
	.st12{display:inline;fill:#FFFFFF;}
	.st13{display:inline;fill:#A7A9AC;}
	.st14{fill:#58595B;}
	.st15{font-family:'Archer-Bold';}
	.st16{font-size:26px;}
	.st17{font-family:'ARDESTINE';}
	.st18{display:inline;fill:none;stroke:#FFFFFF;stroke-width:3;stroke-miterlimit:10;}
	.st19{stroke:#000000;stroke-miterlimit:10;}
	.st20{fill:#FFFFFF;stroke:#FFFFFF;stroke-miterlimit:10;}
	.st21{display:inline;fill:#FFFFFF;stroke:#FFFFFF;stroke-miterlimit:10;}
	.st22{display:inline;stroke:#000000;stroke-miterlimit:10;}
	.st23{fill:#FFFFFF;stroke:#FFFFFF;stroke-width:3;stroke-miterlimit:10;}
	.st24{font-family:'CenturyGothic-Bold';}
	.st25{display:inline;fill:#006E44;}
	.st26{display:inline;fill:#18AE6F;}
	.st27{fill:#088C58;}
	.st28{fill:#18AE6F;}
	.st29{display:inline;stroke:#18AE6F;stroke-width:4;stroke-miterlimit:10;}
	.st30{display:inline;fill:#F1F2F2;}
	.st31{font-size:21px;}
	.st32{stroke:#18AE6F;stroke-width:4;stroke-miterlimit:10;}
	.st33{fill:#F1F2F2;}
</style>
<g id="Layer_1" class="st0">
	<rect x="29.9" y="-28.5" class="st1" width="42.8" height="52.6"/>
	<text transform="matrix(1 0 0 1 29.8692 20.1591)" class="st2 st3 st4">F</text>
	<rect x="-288.9" y="-152.2" class="st1" width="146.8" height="27.7"/>
	<text transform="matrix(1 0 0 1 -288.9329 -132.4426)" class="st2 st6" style="font-family:'FuturaStd-Book';">Ashley Farias</text>
	<rect x="-288.9" y="-119.3" class="st1" width="146.8" height="27.7"/>
	<text transform="matrix(1 0 0 1 -288.9329 -99.5422)" class="st2 st6" style="font-family:'FuturaStd-BookOblique';">Ashley Farias</text>
	<rect x="-292" y="-86.4" class="st1" width="190" height="25.1"/>
	<text transform="matrix(1 0 0 1 -291.9632 -66.5221)" class="st2 st6" style="font-family:'FuturaStd-Bold';">Ashley Farias</text>
	<rect x="-292" y="-52.7" class="st1" width="190" height="25.1"/>
	<text transform="matrix(1 0 0 1 -291.9632 -34.5267)" class="st2 st6" style="font-family:'GloriolaStd-Light';">Ashley Farias</text>
	<rect x="-292" y="-23.2" class="st1" width="190" height="25.1"/>
	<text transform="matrix(1 0 0 1 -291.9632 -5.4061)" class="st2 st6" style="font-family:'Hermes-Regular';">Ashley Farias</text>
	<rect x="-292" y="8.8" class="st1" width="190" height="25.1"/>
	<text transform="matrix(1 0 0 1 -291.9632 26.0285)" class="st2 st6" style="font-family:'MundoSans';">Ashley Farias</text>
	<rect x="-292" y="38.2" class="st1" width="190" height="25.1"/>
	<text transform="matrix(1 0 0 1 -291.9632 55.1054)" class="st2 st6" style="font-family:'MuseoSlab-300';">Ashley Farias</text>
	<rect x="-292" y="65.5" class="st1" width="190" height="25.1"/>
	<text transform="matrix(1 0 0 1 -291.9632 81.5143)" class="st2 st6" style="font-family:'ProximaNova-Regular';">Ashley Farias</text>
	<rect x="-292" y="116.2" class="st1" width="190" height="25.1"/>
	<text transform="matrix(1 0 0 1 -291.9632 135.9151)" class="st2" style="font-family:'Averoster'; font-size:40px;">Ashley Farias</text>
	<rect x="-352.4" y="94.1" class="st1" width="223.4" height="18.6"/>
	<text transform="matrix(1 0 0 1 -352.3961 112.0784)" class="st2 st6" style="font-family:'BigJohn';">Ashley Farias</text>
	<rect x="-82" y="-152.2" class="st1" width="232.5" height="37.7"/>
	<text transform="matrix(1 0 0 1 -81.9826 -125.5626)" class="st2"><tspan x="0" y="0" style="font-family:'ProximaNova-Thin'; font-size:40px;">Fit</tspan><tspan x="52" y="0" style="font-family:'ProximaNova-Black'; font-size:40px;">Farias</tspan></text>
	<rect x="139.8" y="-148.1" class="st1" width="232.5" height="37.7"/>
	<text transform="matrix(1 0 0 1 139.7972 -121.4501)" class="st2"><tspan x="0" y="0" style="font-family:'ProximaNova-Light'; font-size:40px;">Fit</tspan><tspan x="53.2" y="0" style="font-family:'ProximaNova-Black'; font-size:40px;">Farias</tspan></text>
	<rect x="-80.7" y="-115.9" class="st1" width="232.5" height="37.7"/>
	<text transform="matrix(1 0 0 1 -80.6839 -82.857)" class="st2"><tspan x="0" y="0" class="st3" style="font-size:40px;">Fit</tspan><tspan x="64" y="0" class="st7" style="font-size:40px;">Farias</tspan></text>
	<rect x="-83.7" y="-24.6" class="st1" width="109.3" height="52.6"/>
	<text transform="matrix(1 0 0 1 -83.6704 24.0376)" class="st2 st3 st4">F</text>
	<rect x="-83.3" y="-69.6" class="st1" width="232.5" height="37.7"/>
	<text transform="matrix(1 0 0 1 -83.2813 -36.58)" class="st2"><tspan x="0" y="0" class="st3" style="font-size:40px;">Fit</tspan><tspan x="64" y="0" style="font-family:'ProximaNova-Light'; font-size:45px;">F</tspan><tspan x="88.4" y="0" class="st7" style="font-size:40px;">arias</tspan></text>
	<rect x="-47.5" y="-23.6" class="st1" width="80.1" height="57.6"/>
	<text transform="matrix(1 0 0 1 -47.4925 -3.2695)" class="st2"><tspan x="0" y="0" class="st5 st6">it</tspan><tspan x="0" y="27" class="st7 st6">farias</tspan></text>
	<rect x="52.1" y="4.2" class="st1" width="29.8" height="22.8"/>
	<text transform="matrix(1 0 0 1 52.1266 19.512)" class="st2 st5 st8">it</text>
	<rect x="63.8" y="-8.8" class="st1" width="116.8" height="36.9"/>
	<text transform="matrix(1 0 0 1.1 63.7966 20.0325)" class="st2 st7 st9">farias</text>
	<rect x="-80.7" y="38.2" class="st1" width="299.5" height="27.3"/>
	<text transform="matrix(1 0 0 1 -80.684 61.5785)" class="st2 st10 st9">Farias Fitness</text>
	<rect x="-89.2" y="106.5" class="st1" width="30.3" height="27.3"/>
	<text transform="matrix(1 0 0 1 -89.2029 129.8285)" class="st2 st10 st9">F</text>
	<rect x="-82.7" y="71.8" class="st1" width="299.5" height="31.5"/>
	<text transform="matrix(1 0 0 1 -82.7029 96.336)" class="st2 st9" style="font-family:'MuseoSans-100';">Farias Fitness</text>
	<g class="st2">
		<rect x="117.1" y="-108.9" style="fill:none;" width="87" height="63.3"/>
		<text transform="matrix(1 0 0 1 117.0833 -49.1579)" style="font-family:'FuturaStd-Bold'; font-size:72px;">A</text>
		<polygon style="fill:none;" points="132,-67.8 189.4,-67.8 183.3,-33.6 126,-33.6 		"/>
		
			<text transform="matrix(0.9848 0 -0.1736 0.9848 129.6503 -54.6006)" class="st11" style="font-family:'ProximaNova-LightIt'; font-size:20px;">F</text>
		<polygon style="fill:none;" points="225.7,-62.7 143.8,-62.7 144.7,-67.8 226.6,-67.8 		"/>
		
			<text transform="matrix(0.9848 0 -0.1736 0.9848 144.1307 -64.4022)" class="st11" style="font-family:'ProximaNova-LightIt'; font-size:5.0771px;">arias</text>
		<polygon style="fill:none;" points="223.6,-58.2 141.8,-58.2 142.7,-63.3 224.5,-63.3 		"/>
		
			<text transform="matrix(0.9848 0 -0.1736 0.9848 142.0872 -59.9023)" class="st11" style="font-family:'ProximaNova-LightIt'; font-size:5.0771px;">itness</text>
	</g>
	<g class="st2">
		<g>
			<path d="M227-25.6l-6.7,16.9h-26.8l37.4-97.1h27.6L295-8.7h-26.9l-6.3-16.9H227z M244.7-75.8h-0.3L234-44.9h21L244.7-75.8z"/>
		</g>
		<g>
			<path class="st11" d="M217.6-18.5l9.3-23.5h14.9l-0.7,1.8h-12.9l-3.4,8.7h12.6l-0.7,1.8H224l-4.4,11.1H217.6z"/>
		</g>
		<g>
			<path class="st11" d="M247.1-36l0-1.5h-3.2l-1.2,1.5h-0.6l4.8-6h0.6l0.1,6H247.1z M247.1-41.4l-2.8,3.5h2.8L247.1-41.4z"/>
			<path class="st11" d="M252.1-36l-0.7-2.5H250l-1,2.5h-0.5l2.4-6h2.1c0.8,0,1.5,0.5,1.4,1.5c-0.2,1.1-1.1,1.9-2.4,2l0.7,2.5H252.1
				z M251.9-38.9c1,0,1.7-0.7,1.9-1.5c0.1-0.6-0.4-1.1-0.9-1.1h-1.6l-1,2.6H251.9L251.9-38.9z"/>
			<path class="st11" d="M253.8-36l2.4-6h0.5l-2.4,6H253.8z"/>
			<path class="st11" d="M260.2-36l0-1.5H257l-1.2,1.5h-0.6l4.8-6h0.6l0.1,6H260.2z M260.2-41.4l-2.8,3.5h2.8L260.2-41.4z"/>
			<path class="st11" d="M261.6-36.9l0.4-0.4c0.3,0.6,0.9,1,1.8,1c1.1,0,1.6-0.7,1.7-1.3c0.2-1.3-2.8-1.1-2.5-2.7
				c0.2-0.9,1.2-1.7,2.3-1.7c0.9,0,1.6,0.4,1.9,0.9l-0.5,0.4c-0.3-0.6-0.9-0.8-1.6-0.8c-0.8,0-1.5,0.6-1.6,1.1
				c-0.2,1.2,2.8,1,2.5,2.7c-0.2,0.9-1,1.8-2.4,1.8C262.6-35.9,261.8-36.3,261.6-36.9z"/>
		</g>
		<g>
			<path class="st11" d="M239.1-28l2.4-6h0.5l-2.4,6H239.1z"/>
			<path class="st11" d="M242.6-28l2.2-5.5h-2l0.2-0.5h4.4l-0.2,0.5h-2l-2.2,5.5H242.6z"/>
			<path class="st11" d="M250.4-28l-1.7-5.2l-2.1,5.2h-0.5l2.4-6h0.5l1.7,5.1l2-5.1h0.5l-2.4,6H250.4z"/>
			<path class="st11" d="M252.4-28l2.4-6h3.8l-0.2,0.5h-3.3l-0.9,2.2h3.2l-0.2,0.5H254l-0.9,2.4h3.3l-0.2,0.5H252.4z"/>
			<path class="st11" d="M257.5-28.9l0.4-0.4c0.3,0.6,0.9,1,1.8,1c1.1,0,1.6-0.7,1.7-1.3c0.2-1.3-2.8-1.1-2.5-2.7
				c0.2-0.9,1.2-1.7,2.3-1.7c0.9,0,1.6,0.4,1.9,0.9l-0.4,0.4c-0.3-0.6-0.9-0.8-1.6-0.8c-0.8,0-1.5,0.6-1.6,1.1
				c-0.2,1.2,2.8,1,2.5,2.7c-0.2,0.9-1,1.8-2.4,1.8C258.6-27.8,257.8-28.3,257.5-28.9z"/>
			<path class="st11" d="M262.7-28.9l0.4-0.4c0.3,0.6,0.9,1,1.8,1c1.1,0,1.6-0.7,1.7-1.3c0.2-1.3-2.8-1.1-2.5-2.7
				c0.2-0.9,1.2-1.7,2.3-1.7c0.9,0,1.6,0.4,1.9,0.9l-0.4,0.4c-0.3-0.6-0.9-0.8-1.6-0.8c-0.8,0-1.5,0.6-1.6,1.1
				c-0.2,1.2,2.8,1,2.5,2.7c-0.2,0.9-1,1.8-2.4,1.8C263.8-27.8,263-28.3,262.7-28.9z"/>
		</g>
	</g>
	<polygon class="st1" points="37.3,193.4 -94.4,193.4 -77.6,151.6 54.2,151.6 	"/>
	
		<text transform="matrix(0.9272 0 -0.3746 0.9272 -90.4886 183.6538)" class="st2" style="font-family:'ProximaNova-Thin'; font-size:51.7697px;">A</text>
	<rect x="-63" y="151.6" class="st1" width="71.8" height="33.5"/>
	<text transform="matrix(1 0 0 1 -62.9702 183.6535)" class="st2" style="font-family:'ProximaNova-Thin'; font-size:48px;">F</text>
	
		<rect x="-88.1" y="128.1" transform="matrix(0.7712 -0.6366 0.6366 0.7712 -102.1586 -23.6398)" class="st12" width="8.3" height="4.3"/>
	
		<rect x="-76.5" y="108.4" transform="matrix(0.7712 -0.6366 0.6366 0.7712 -86.9155 -20.7169)" class="st12" width="8.3" height="4.3"/>
	
		<rect x="-76.4" y="117" transform="matrix(0.7712 -0.6366 0.6366 0.7712 -92.3593 -18.7152)" class="st12" width="8.3" height="4.3"/>
	<polygon class="st2" points="-23.1,144.3 -23.1,131.1 -10.5,131.1 -1.9,123.9 -23.1,123.9 -23.1,112 -8.1,112 0.5,104.8 
		-31.2,104.8 -31.2,151 	"/>
	<polygon class="st2" points="-2.2,144.3 -2.2,131.1 10.3,131.1 19,123.9 -2.2,123.9 -2.2,112 12.7,112 21.4,104.8 -10.3,104.8 
		-10.3,151 	"/>
	<polygon class="st13" points="241.3,96.7 241.3,71.9 266.5,71.9 279.9,61.2 241.3,61.2 241.3,40.4 267.2,40.4 282.3,28 227.1,28 
		227.1,108.4 	"/>
	<polyline class="st2" points="283.9,40.4 308.9,40.4 323.9,28 283.9,28 	"/>
	<g class="st2">
		<polygon class="st14" points="273.3,37.4 269.6,40.9 269.6,59.8 282.5,59.8 282.5,29.7 		"/>
		<polygon class="st14" points="269.6,72 269.6,96.7 282.5,107.8 282.5,60.5 		"/>
		<path class="st11" d="M285.2,29"/>
	</g>
	<rect x="10.8" y="127.3" class="st1" width="61" height="39.3"/>
	<text transform="matrix(1 0 0 1 10.7971 154.2641)" class="st2" style="font-family:'BigJohn'; font-size:36px;">AF</text>
	<rect x="226.7" y="112.9" class="st1" width="93" height="14.2"/>
	<text transform="matrix(1 0 0 1 226.6518 122.2607)" class="st2"><tspan x="0" y="0" style="font-family:'ProximaNova-Bold'; font-size:14px;">Fit</tspan><tspan x="20" y="0" style="font-family:'ProximaNova-Light'; font-size:14px;">Farias</tspan></text>
</g>
<g id="Layer_2" class="st0">
	<text transform="matrix(1 0 0 1 -78.195 -141.5923)" class="st2 st6" style="font-family:'ROSKA';">Fit Farias</text>
	<text transform="matrix(1 0 0 1 -82.1251 -111.4613)" class="st2 st6" style="font-family:'RotisSansSerifStd';">FIT FARIAS</text>
	<text transform="matrix(1 0 0 1 -82.1251 -79.5835)" class="st2 st6" style="font-family:'Vani';">FIT FARIAS</text>
	<text transform="matrix(1 0 0 1 -82.5618 -52.946)" class="st2 st16" style="font-family:'Rockwell-Bold';">FIT FARIAS</text>
	<text transform="matrix(1 0 0 1 -82.9985 -30.2386)" class="st2 st6" style="font-family:'Memphis-Light';">FIT FARIAS</text>
	<text transform="matrix(1 0 0 1 -82.5618 -7.9678)" class="st2 st6" style="font-family:'Elephant-Regular';">FIT FARIAS</text>
	<text transform="matrix(1 0 0 1 -83.4351 14.7396)" class="st2 st15 st16">FIT FARIAS</text>
	<text transform="matrix(1 0 0 1 -85.1819 37.8837)" class="st2 st6" style="font-family:'Averoster';">FIT FARIAS</text>
	<text transform="matrix(1 0 0 1 -85.1819 60.5911)" class="st2 st17 st6">FIT FARIAS</text>
	<rect x="-80.8" y="82.9" class="st1" width="194.3" height="62.9"/>
	<text transform="matrix(1 0 0 1 -80.8151 100.1888)" class="st2 st6" style="font-family:'UniversLTStd-Black';">FIT FARIAS</text>
	<line class="st18" x1="75.1" y1="95.2" x2="-82.5" y2="95.2"/>
</g>
<g id="_x31_" class="st0">
	<polyline class="st13" points="32.1,73.9 59.7,51.1 59.7,2.7 109.1,2.7 135.2,-18.2 59.7,-18.2 59.7,-58.9 110.5,-58.9 
		139.9,-83.2 32.1,-83.2 	"/>
	<polyline class="st2" points="143,-58.9 191.8,-58.9 221.2,-83.2 143,-83.2 	"/>
	<g class="st2">
		<polygon class="st14" points="122.4,-64.8 115,-58 115,-21 140.2,-21 140.2,-79.7 		"/>
		<polygon class="st14" points="115,2.9 115,51 140.2,72.8 140.2,-19.6 		"/>
		<path class="st11" d="M145.6-81.1"/>
	</g>
	<rect x="31.2" y="82.7" class="st1" width="181.6" height="46.9"/>
	<text transform="matrix(1 0 0 1 31.2118 107.4456)" class="st2"><tspan x="0" y="0" style="font-family:'ProximaNova-Bold'; font-size:37.057px;">Fit</tspan><tspan x="52.9" y="0" style="font-family:'ProximaNova-Light'; font-size:37.057px;">FARIAS</tspan></text>
</g>
<g id="_x32_" class="st0">
	<g class="st2">
		<g>
			<path d="M91.7,50.3L79.2,81.8h-50L98.9-99.3h51.4l68.2,181.1h-50.2l-11.8-31.5H91.7z M124.6-43.3h-0.5l-19.5,57.6h39.2
				L124.6-43.3z"/>
		</g>
		<g>
			<path class="st11" d="M74.1,63.6l17.4-43.8h27.8l-1.3,3.4H93.9l-6.4,16.2H111l-1.4,3.4H86.1l-8.3,20.8H74.1z"/>
		</g>
		<g>
			<path class="st11" d="M129.1,30.9l0-2.7h-5.9l-2.2,2.7h-1.2l9-11.1h1.2l0.1,11.1H129.1z M129.1,20.8l-5.2,6.5h5.3L129.1,20.8z"/>
			<path class="st11" d="M138.4,30.9l-1.3-4.6h-2.5l-1.8,4.6h-1l4.4-11.1h3.8c1.5,0,2.8,1,2.5,2.8c-0.4,2.1-2.1,3.6-4.5,3.7l1.4,4.7
				H138.4z M138,25.4c2,0,3.2-1.3,3.5-2.8c0.2-1.2-0.7-2-1.7-2h-3l-1.9,4.8H138L138,25.4z"/>
			<path class="st11" d="M141.7,30.9l4.4-11.1h1l-4.4,11.1H141.7z"/>
			<path class="st11" d="M153.5,30.9l0-2.7h-5.9l-2.2,2.7h-1.2l9-11.1h1.2l0.1,11.1H153.5z M153.5,20.8l-5.2,6.5h5.3L153.5,20.8z"/>
			<path class="st11" d="M156.1,29.1l0.8-0.7c0.6,1.1,1.7,1.8,3.3,1.8c2,0,3-1.3,3.2-2.4c0.4-2.5-5.2-2-4.7-5.1
				c0.3-1.7,2.2-3.1,4.3-3.1c1.7,0,3,0.7,3.5,1.7l-0.8,0.7c-0.5-1.1-1.7-1.5-2.9-1.5c-1.5,0-2.8,1-3,2.1c-0.4,2.2,5.2,1.9,4.7,5.1
				c-0.3,1.7-2,3.4-4.5,3.4C158.1,31.1,156.6,30.2,156.1,29.1z"/>
		</g>
		<g>
			<path class="st11" d="M114.2,45.9l4.4-11.1h1l-4.4,11.1H114.2z"/>
			<path class="st11" d="M120.7,45.9l4.1-10.3h-3.6l0.3-0.9h8.2l-0.3,0.9h-3.6l-4.1,10.3H120.7z"/>
			<path class="st11" d="M135.3,45.9l-3.2-9.6l-3.8,9.6h-1l4.4-11.1h1l3.2,9.5l3.8-9.5h1l-4.4,11.1H135.3z"/>
			<path class="st11" d="M139,45.9l4.4-11.1h7.1l-0.3,0.9H144l-1.6,4.1h6l-0.4,0.9h-6l-1.8,4.4h6.1l-0.3,0.9H139z"/>
			<path class="st11" d="M148.6,44.1l0.8-0.7c0.6,1.1,1.7,1.8,3.3,1.8c2,0,3-1.3,3.2-2.4c0.4-2.4-5.2-2-4.7-5.1
				c0.3-1.7,2.2-3.1,4.3-3.1c1.7,0,3,0.7,3.5,1.7l-0.8,0.7c-0.5-1.1-1.7-1.5-2.9-1.5c-1.5,0-2.8,1-3,2.1c-0.4,2.2,5.2,1.9,4.7,5.1
				c-0.3,1.7-2,3.4-4.5,3.4C150.6,46.1,149.1,45.2,148.6,44.1z"/>
			<path class="st11" d="M158.3,44.1l0.8-0.7c0.6,1.1,1.7,1.8,3.3,1.8c2,0,3-1.3,3.2-2.4c0.4-2.4-5.2-2-4.7-5.1
				c0.3-1.7,2.2-3.1,4.3-3.1c1.7,0,3,0.7,3.5,1.7L168,37c-0.5-1.1-1.7-1.5-2.9-1.5c-1.5,0-2.8,1-3,2.1c-0.4,2.2,5.2,1.9,4.7,5.1
				c-0.3,1.7-2,3.4-4.5,3.4C160.3,46.1,158.8,45.2,158.3,44.1z"/>
		</g>
	</g>
</g>
<g id="_x33_" class="st0">
	<g class="st2">
		<polygon class="st19" points="11.3,-47.9 11.3,-130.9 -71.7,-47.9 		"/>
		<polygon class="st20" points="-2.8,-62.4 -2.8,-96 -36.5,-62.4 		"/>
		<polygon class="st19" points="18.6,-48.1 101.6,-131.1 18.6,-131.1 		"/>
	</g>
	<rect x="38.5" y="-115.7" class="st21" width="49" height="9"/>
	<rect x="38.5" y="-92.4" class="st21" width="49" height="28.2"/>
</g>
<g id="_x34_" class="st0">
	<g class="st2">
		<polygon class="st19" points="68.7,73.2 68.7,-71 -75.4,73.2 		"/>
		<polygon class="st20" points="39.1,43.2 39.1,2.8 -1.3,43.2 		"/>
		<polygon class="st19" points="81.4,72.7 225.5,-71.4 81.4,-71.4 		"/>
	</g>
	<rect x="116.1" y="-32.3" class="st21" width="85.1" height="15.7"/>
</g>
<g id="_x35_" class="st0">
	<rect x="185.6" y="78.3" class="st1" width="134.3" height="46.4"/>
	<text transform="matrix(1 0 0 1 185.6009 111.179)" class="st2" style="font-family:'AvenirNext-Heavy'; font-size:43.4684px;">IT</text>
	<rect x="174.4" y="142.8" class="st1" width="153" height="53.1"/>
	<text transform="matrix(1 0 0 1 174.387 175.6156)" class="st2" style="font-family:'AvenirNext-Heavy'; font-size:43.4684px;"> ARI   S</text>
	<rect x="183.4" y="143" class="st21" width="36" height="39.5"/>
	<rect x="267.5" y="141" class="st21" width="30.9" height="39.5"/>
	<g class="st2">
		<polygon class="st19" points="108.6,153.4 199.7,62.2 108.6,62.2 		"/>
	</g>
	<rect x="130.5" y="78.2" class="st21" width="53.8" height="9.9"/>
	<rect x="130.5" y="104.7" class="st21" width="53.8" height="31"/>
	<g class="st2">
		<polygon class="st19" points="139.7,205 230.9,113.9 139.7,113.9 		"/>
	</g>
	<rect x="161.6" y="130.9" class="st21" width="53.8" height="9.9"/>
	<rect x="161.6" y="156.4" class="st21" width="53.8" height="31"/>
	<polygon class="st22" points="218.1,175.5 218.1,145.7 188.3,175.5 	"/>
	<polygon class="st22" points="295.4,175.5 295.4,145.7 265.6,175.5 	"/>
</g>
<g id="_x36_" class="st0">
	<g class="st2">
		<polygon class="st19" points="-57.2,24.5 96.5,-129.2 -57.2,-129.2 		"/>
	</g>
	<rect x="-20.3" y="-87.5" class="st21" width="90.7" height="16.7"/>
	<g class="st2">
		<polygon class="st19" points="9.2,130.8 162.8,-22.9 9.2,-22.9 		"/>
	</g>
	<rect x="46.1" y="18.8" class="st21" width="90.7" height="16.7"/>
	<rect x="53.1" y="-78.5" class="st1" width="64.8" height="51.4"/>
	<text transform="matrix(1 0 0 1 53.14 -34.3498)" class="st2 st24 st4">IT</text>
	<rect x="74.7" y="57.4" class="st1" width="219.1" height="51.4"/>
	<text transform="matrix(1 0 0 1 74.7249 101.5238)" class="st2 st24 st4">ARIAS</text>
</g>
<g id="_x37_" class="st0">
	<g class="st2">
		<polygon class="st19" points="145.2,-90.5 220.3,-90.5 262,-132.2 108.3,-132.2 108.3,-4.9 133.8,-4.9 108.3,20.7 108.3,21.5 
			203.6,-73.8 145.2,-73.8 		"/>
		<polygon class="st20" points="203.6,-73.8 235.9,-73.8 235.9,-90.5 220.3,-90.5 		"/>
		<polygon class="st19" points="-19.8,-4.9 -19.8,148.8 75.5,53.5 17.1,53.5 17.1,36.8 92.2,36.8 108.3,20.7 108.3,-4.9 		"/>
		<polygon class="st23" points="108.3,-4.9 108.3,20.7 133.8,-4.9 		"/>
		<polygon class="st20" points="107.8,53.5 107.8,36.8 92.2,36.8 75.5,53.5 		"/>
	</g>
	<rect x="111.1" y="1.5" class="st1" width="64.8" height="51.4"/>
	<text transform="matrix(1 0 0 1 111.14 45.6502)" class="st2 st24 st4">IT</text>
	<rect x="74.7" y="57.4" class="st1" width="219.1" height="51.4"/>
	<text transform="matrix(1 0 0 1 74.7249 101.5238)" class="st2 st24 st4">ARIAS</text>
</g>
<g id="_x38_" class="st0">
	<g class="st2">
		<polygon class="st19" points="1.2,-155.8 -76.1,-78.5 78.5,-78.5 		"/>
		<polygon class="st19" points="79.3,-74.4 -75.3,-74.4 2,3 		"/>
	</g>
	<rect x="2.2" y="-57.3" class="st21" width="64.6" height="11.9"/>
	<rect x="2.2" y="-26.7" class="st21" width="45.1" height="37.2"/>
	<polygon class="st21" points="0.4,-127.5 -31,-96.2 31.7,-96.2 	"/>
	<g class="st2">
		<polygon class="st19" points="232,12.5 155.8,88.7 308.2,88.7 		"/>
		<polygon class="st19" points="309,92.8 156.5,92.8 232.7,169 		"/>
	</g>
	<polygon class="st21" points="296.6,121.4 211.2,121.4 203.8,109.6 296.6,109.6 	"/>
	<polygon class="st21" points="296.6,171.9 233,171.9 217,135.3 296.6,135.3 	"/>
	<g class="st2">
		<polygon class="st20" points="276,90.1 251.4,69.1 212.6,69.1 188,90.1 		"/>
	</g>
</g>
<g id="_x39_" class="st0">
	<g class="st2">
		<g>
			<g>
				<polygon points="-84.8,30.3 19.6,30.3 19.6,30.4 44.8,30.4 60.4,46.1 -39.9,46.1 19.6,105.6 19.6,134.7 				"/>
				<path d="M19.1,30.8v0.2h1h24.4l14.6,14.6H20.1h-58.8h-2.4l1.7,1.7L19,105.7l0.1,0.1v27.7l-87.6-87.6l-9.6-9.6l-5.5-5.5h11.9
					H19.1 M20.1,29.8h-91.8H-86l7.2,7.2l9.6,9.6l89.4,89.4v-31.3l-0.4,0.4l-58.4-58.4h58.8h41.5L45,29.9H20.1V29.8L20.1,29.8z"/>
			</g>
			<g>
				<polygon points="-8.4,69.7 -24,54.1 50,54.1 65.3,69.7 				"/>
				<path d="M49.8,54.6l14.4,14.6H-8.2l-14.6-14.6H49.8 M50.2,53.6h-75.5l16.6,16.6h75.1L50.2,53.6L50.2,53.6z"/>
			</g>
		</g>
	</g>
	<g class="st2">
		<g>
			<g>
				<polygon points="-22.9,92.7 81.5,92.7 81.5,92.9 106.7,92.9 122.3,108.5 22,108.5 81.5,168.1 81.5,197.2 				"/>
				<path d="M81,93.2v0.2h1h24.4l14.6,14.6H82H23.2h-2.4l1.7,1.7l58.4,58.4l0.1,0.1V196l-87.6-87.6l-9.6-9.6l-5.5-5.5h11.9H81
					 M82,92.2H-9.8h-14.3l7.2,7.2l9.6,9.6L82,198.4v-31.3l-0.4,0.4L23.2,109H82h41.5l-16.6-16.6H82V92.2L82,92.2z"/>
			</g>
			<g>
				<polygon points="53.5,132.2 37.9,116.5 111.9,116.5 127.2,132.2 				"/>
				<path d="M111.7,117l14.4,14.6H53.7L39.1,117H111.7 M112.1,116H36.7l16.6,16.6h75.1L112.1,116L112.1,116z"/>
			</g>
		</g>
	</g>
</g>
<g id="_x31_0" class="st0">
	<g class="st2">
		<g>
			<g>
				<polygon class="st11" points="186.8,-84.6 285.3,-84.6 285.3,-84.4 313.9,-84.4 323.4,-74.8 217.5,-74.8 285.3,-7 285.3,13.9 
									"/>
				<path d="M281.3-80.6v0.2h8h22.9l1.6,1.6h-24.5h-62.1h-19.3l13.7,13.7l59.8,59.8v9.6l-80.7-80.7l-4.1-4.1H281.3 M289.3-88.6h-97
					h-15.1l7.6,7.6l10.2,10.2l94.4,94.4V-9.5l-0.4,0.4l-61.7-61.7h62.1h43.8l-17.6-17.6h-26.3V-88.6L289.3-88.6z"/>
			</g>
			<g>
				<polygon class="st11" points="260.6,-49.9 251,-59.4 319.4,-59.4 328.8,-49.9 				"/>
				<path d="M317.7-55.4l1.5,1.6h-57l-1.6-1.6H317.7 M321.1-63.4h-79.7l17.6,17.6h79.4L321.1-63.4L321.1-63.4z"/>
			</g>
		</g>
	</g>
	<g class="st2">
		<g>
			<g>
				<polygon points="77.6,-143.6 188,-143.6 188,-143.4 214.6,-143.4 231.1,-126.9 125.2,-126.9 188,-64 188,-33.2 				"/>
				<path d="M187.5-143.1v0.2h1h25.8l15.6,15.6h-41.4h-62.1H124l1.7,1.7L187.4-64l0.1,0.1v29.4l-92.6-92.6l-10.2-10.2l-5.9-5.9h12.7
					H187.5 M188.5-144.1h-97H76.4l7.6,7.6l10.2,10.2L188.5-32v-33.1l-0.4,0.4l-61.7-61.7h62.1h43.8l-17.6-17.6h-26.3V-144.1
					L188.5-144.1z"/>
			</g>
			<g>
				<polygon points="158.4,-101.9 141.9,-118.5 220.1,-118.5 236.4,-101.9 				"/>
				<path d="M219.9-118l15.3,15.6h-76.6L143.1-118H219.9 M220.3-119h-79.7l17.6,17.6h79.4L220.3-119L220.3-119z"/>
			</g>
		</g>
	</g>
</g>
<g id="Layer_13" class="st0">
	<polyline class="st25" points="36.3,120.9 63.4,98.6 63.4,51.1 111.8,51.1 137.3,30.6 63.4,30.6 63.4,-9.2 113.1,-9.2 142,-33 
		36.3,-33 	"/>
	<polyline class="st26" points="144.9,-9.2 192.7,-9.2 221.6,-33 144.9,-33 	"/>
	<polyline class="st26" points="144.9,49.2 185.3,49.2 212.4,29.1 144.9,29.1 	"/>
	<g class="st2">
		<polygon class="st27" points="124.8,-15 117.5,-8.3 117.5,27.9 142.2,27.9 142.2,-29.6 		"/>
		<polygon class="st27" points="117.5,51.3 117.5,98.4 142.2,119.7 142.2,29.3 		"/>
		<path class="st27" d="M147.5-31"/>
	</g>
	<g class="st2">
		<path class="st28" d="M35.7-41.4v-27.4h19.4v5.1H41.5v5.8h13.3v5.1H41.5v11.4H35.7z"/>
		<path class="st28" d="M59.2-41.4v-27.4H65v27.4H59.2z"/>
		<path class="st28" d="M76.7-41.4v-22.3h-8v-5.1h21.9v5.1h-8v22.3H76.7z"/>
		<path class="st28" d="M95-41.4v-27.4h17.4v2.1h-15v10.1h14.7v2.1H97.4v13H95z"/>
		<path class="st28" d="M135.8-41.4l-2.7-6.7h-14.5l-2.7,6.7h-2.7l11.2-27.4h2.9l11.2,27.4H135.8z M125.8-66.3l-6.5,16h12.9
			L125.8-66.3z"/>
		<path class="st28" d="M158.5-41.4l-7.7-11.3h-6v11.3h-2.3v-27.4h10.2c4.7,0,8.3,3,8.3,8c0,5-3.5,7.7-7.6,7.9l7.9,11.5H158.5z
			 M158.6-60.8c0-3.4-2.4-5.9-6.1-5.9h-7.7v11.8h7.7C156.2-54.9,158.6-57.3,158.6-60.8z"/>
		<path class="st28" d="M166.9-41.4v-27.4h2.3v27.4H166.9z"/>
		<path class="st28" d="M195.9-41.4l-2.7-6.7h-14.5l-2.7,6.7h-2.7l11.2-27.4h2.9l11.2,27.4H195.9z M185.9-66.3l-6.5,16h12.9
			L185.9-66.3z"/>
		<path class="st28" d="M200.4-45.2l1.5-1.8c1.8,2,4.6,4,8.6,4c5.6,0,7.2-3.1,7.2-5.5c0-8.1-16.4-3.9-16.4-13.4c0-4.5,4-7.3,9-7.3
			c4.1,0,7.2,1.4,9.3,3.9l-1.6,1.7c-2-2.4-4.8-3.5-7.8-3.5c-3.7,0-6.4,2.1-6.4,5.1c0,7,16.4,3.2,16.4,13.4c0,3.5-2.3,7.8-9.7,7.8
			C205.9-40.9,202.5-42.7,200.4-45.2z"/>
	</g>
	<text transform="matrix(1 0 0 1 34.8735 -80.4835)" style="font-family:'ProximaNova-Regular'; font-size:24.8883px;">Personal Training</text>
</g>
<g id="Layer_14" class="st0">
	<polygon class="st29" points="242,46.3 4.3,46.3 26,2.3 263.7,2.3 	"/>
	<text transform="matrix(1 0 0 1 104.3333 30.3333)" class="st30 st10 st31">Home</text>
</g>
<g id="Layer_14_copy">
	<polygon class="st32" points="242,46.3 4.3,46.3 26,2.3 263.7,2.3 	"/>
	<text transform="matrix(1 0 0 1 95.3333 30.3333)" class="st33 st10 st31">Services</text>
</g>
<g id="Layer_15" class="st0">
</g>
</svg>
